<svg xmlns="http://www.w3.org/2000/svg" viewBox="0 0 614.27 512.22"><defs><style>.cls-1{fill:#ef5a47;}.cls-2{fill:#e2dcd6;}</style></defs><title>texas-camp</title><g id="Layer_1" data-name="Layer 1"><path class="cls-1" d="M566,.23c5.13,0,10.25-.4,15.37-.13a26.66,26.66,0,0,1,6.59,1,7.8,7.8,0,0,1,3.83,2.65c2.47,3.06,3.62,7.18,4.31,11a41.24,41.24,0,0,1,.29,13.62c-.62,4-2,8.63-6,10.53a9.88,9.88,0,0,1-3.9,1.07c-1.47,0-2.92-.36-4.4-.41a33.18,33.18,0,0,0-4.31.54,42,42,0,0,1-4.62.16c-3.17,0-6.33-.22-9.5-.12a30.08,30.08,0,0,0-4.44.44c-1.72.32-3.49.18-5.24.35a11.72,11.72,0,0,0-4,1.42,16.14,16.14,0,0,0-3.24,2.21,15.17,15.17,0,0,0-4.32,6.35,14.38,14.38,0,0,0-.43,2.34,16.88,16.88,0,0,1-.55,2.23A26.44,26.44,0,0,0,540.43,60a13.66,13.66,0,0,0,2.17,8.69,8.58,8.58,0,0,0,2.68,2.81,7.61,7.61,0,0,0,4,1.06,20,20,0,0,0,4.49-.48c.62-.12,1.25-.27,1.87-.42a20.9,20.9,0,0,1,2.74-.32c1.32-.12,2.58-.3,3.88-.53,1.11-.19,2.22-.34,3.33-.46a58.45,58.45,0,0,1,7.71-.36,18.09,18.09,0,0,1,6.37,1,22.85,22.85,0,0,1,6.63,4.06c3.66,3.29,5.87,7.81,8.39,12a41,41,0,0,0,2.59,3.8,27.43,27.43,0,0,1,2.9,4.19c.76,1.48,1.19,3.1,2,4.56a27.87,27.87,0,0,0,2.65,3.81c1.78,2.3,3.86,4.82,4.19,7.83s-.79,5.85-2.41,8.4c-1.76,2.78-3.95,5.32-5.43,8.27a63.92,63.92,0,0,0-3.17,8.55c-1.08,3.24-2.47,6.37-3.61,9.59a58.77,58.77,0,0,1-4.2,9.87c-1.64,2.84-3.59,5.49-5.4,8.23s-3.5,5.35-5.44,7.89a34.56,34.56,0,0,1-6.4,6.61,57.81,57.81,0,0,1-8.51,5.2,82.17,82.17,0,0,1-9.37,4.24c-3.2,1.18-6.6,1.75-9.85,2.77a70.89,70.89,0,0,1-16.4,3,49.62,49.62,0,0,1-17.46-1.43,36.08,36.08,0,0,1-14.14-7.79,28.26,28.26,0,0,1-5-6.12,18.26,18.26,0,0,1-2.81-7.25c-.64-5.61,1.11-10.9,3.2-16s4.81-10.49,8.72-14.59c1.63-1.72,3.84-3.89,6.37-3.73a6,6,0,0,1,3.84,1.74c.54.51,1,1.07,1.58,1.57s1.36,1,2.05,1.54a39.41,39.41,0,0,0,9,5.06,21.82,21.82,0,0,0,9,1.85c3-.18,5.83-1,8.77-1.35a50.64,50.64,0,0,0,9.17-1.46c5.48-1.71,9-6.48,11-11.66a22.5,22.5,0,0,0,1.76-8.12,15.47,15.47,0,0,0-2.38-7.89,12.51,12.51,0,0,0-5.51-5c-2.88-1.29-5.91-1-9-.78a73.6,73.6,0,0,1-9.51,0,46.14,46.14,0,0,1-7.94-.94,19.9,19.9,0,0,1-6.48-2.53,18.29,18.29,0,0,1-5-5.28,72.49,72.49,0,0,1-4.86-8Q512,93.6,511,91.34A28,28,0,0,1,509,86.55c-.42-1.77-.74-3.62-1.32-5.34-.53-1.54-1.13-3-1.68-4.58A23.67,23.67,0,0,1,504.65,72a15.39,15.39,0,0,1,.14-4.34c.09-.62.23-1.24.33-1.86a20.72,20.72,0,0,0,.2-2.62,27.39,27.39,0,0,1,.55-5.59c.88-3.24,2.23-6.32,3.26-9.51,1.11-3.44,2.07-6.92,3.33-10.31a43.46,43.46,0,0,1,4.73-9.1c.89-1.32,1.84-2.62,2.79-3.9.49-.66,1-1.31,1.48-2a13.15,13.15,0,0,1,1.85-1.88c1.33-1.2,2.64-2.39,3.89-3.66s2.38-2.43,3.65-3.55c4.84-4.3,11-7,16.95-9.21q2.3-.86,4.6-1.63a45.79,45.79,0,0,1,4.66-1.48c1.59-.35,3.21-.45,4.81-.7A12.31,12.31,0,0,1,564,.38a3.72,3.72,0,0,0,2-.15C573.05.18,565.35.66,566,.23ZM364.25,42.57a31.71,31.71,0,0,1,14.23,6.29,18.48,18.48,0,0,1,4.77,5.42,10,10,0,0,1,.77,7.89c-.4,1.33-.95,2.61-1.43,3.91-.61,1.68-1.2,3.38-1.79,5.07-1.14,3.29-2.29,6.59-3.63,9.8-2.72,6.5-5.77,12.85-8.79,19.21s-6,13-8.79,19.59c-1.37,3.26-2.71,6.53-4.08,9.79-.68,1.61-1.36,3.19-1.89,4.86a20.27,20.27,0,0,1-2,4.55c-1.68,2.72-3.89,5.06-5.49,7.83a62.47,62.47,0,0,0-3.84,8.84,33.17,33.17,0,0,1-1.83,4.14c-.68,1.25-1.43,2.46-2,3.76a7.61,7.61,0,0,0-.93,3.72,6.69,6.69,0,0,0,1.17,2.9,44.8,44.8,0,0,0,4.34,5.1c.92,1,1.72,2.22,2.58,3.33q1.59,2,3.23,4.05c2.18,2.67,4.39,5.32,6.58,8s4.15,5.29,6.24,7.93c1.25,1.58,2.8,2.92,4.12,4.44s2.9,3.43,2.87,5.51c0,2.7-2.31,5.2-3.8,7.25-1,1.38-2,2.74-3,4.09a38.56,38.56,0,0,1-3.66,3.9,50.18,50.18,0,0,0-3.75,3.83c-1,1.19-1.8,2.46-2.78,3.63a18.39,18.39,0,0,1-6.42,5.09,7.38,7.38,0,0,1-7.91-.74c-2.16-1.68-3.61-4.06-5.25-6.21-1-1.28-2.11-2.44-3.19-3.63a41,41,0,0,1-3-3.83c-1.91-2.7-3.77-5.45-5.89-8-.5-.59-1-1.17-1.53-1.73-.24-.26-.48-.52-.73-.77s-.3-.38-.45-.44a2.9,2.9,0,0,0-.93,0c-.37,0-.77-.09-1.06.12a5.48,5.48,0,0,0-.71.8c-.47.54-.9,1.11-1.32,1.7a40.1,40.1,0,0,0-4,7.6c-1.15,2.75-2.15,5.56-3.26,8.33a32.22,32.22,0,0,1-2,4.3c-.85,1.45-1.82,2.83-2.7,4.26S299.8,241,299,242.41c-.35.69-.77,1.34-1.12,2s-.64,1.55-.95,2.32a38.82,38.82,0,0,1-2.3,4.32c-.81,1.47-1.57,3-2.34,4.44-1.39,2.69-2.86,5.32-4.38,7.93-.93,1.59-1.77,3.24-2.72,4.82-1.89,3.19-4.4,6.76-8.2,7.68a9.81,9.81,0,0,1-6.27-.89,38.37,38.37,0,0,1-7-3.7,20.81,20.81,0,0,1-5.39-5.28c-1.45-2.15-2.85-5.08-2.45-7.73a15.33,15.33,0,0,1,1.3-3.83q1-2.37,2.08-4.72c1.42-3.09,3-6.1,4.43-9.2l2.31-5c.7-1.53,1.56-3,2.37-4.43a28.7,28.7,0,0,0,2.12-4.61c.55-1.62.95-3.3,1.44-4.94a34.64,34.64,0,0,1,4.47-8.86,62.42,62.42,0,0,0,4.75-8.73c.69-1.56,1.36-3.13,2.08-4.68s1.5-3,2.19-4.51c1.41-3.12,2.57-6.35,3.86-9.52.52-1.26,1.09-2.47,1.7-3.69a9,9,0,0,0,1.13-3.77c.07-2.7-1.67-5.28-3.36-7.22s-3.71-3.9-5.37-6.08c-2.13-2.81-4.33-5.56-6.52-8.33-1.09-1.38-2.18-2.77-3.25-4.17a33.05,33.05,0,0,0-3.06-3.72,36.29,36.29,0,0,0-3.52-2.89,13.67,13.67,0,0,1-3.1-2.88c-.85-1.19-1.5-2.51-2.26-3.76s-1.65-2.4-2.5-3.57c-1.7-2.31-3.37-4.85-3.6-7.8-.41-5,3.1-9.28,6.27-12.73,1.93-2.12,3.68-4.4,5.71-6.43a24.37,24.37,0,0,1,5.58-4.09c2.28-1.23,5-2.15,7.58-1.5,2.75.69,5,2.73,6.88,4.81,2.11,2.39,3.93,5,5.94,7.49,2.18,2.66,4.41,5.28,6.49,8,.95,1.26,2.13,2.24,3.15,3.43a26.77,26.77,0,0,1,1.8,2.56,19.62,19.62,0,0,0,4.52,5.24,5.88,5.88,0,0,0,2.94,1.18c.41,0,.5-.06.78-.37s.42-.49.62-.74a19.1,19.1,0,0,0,1.24-1.84,63.81,63.81,0,0,0,3.5-7.72,51,51,0,0,1,4.38-7.84c.89-1.36,1.76-2.73,2.52-4.17a41.17,41.17,0,0,0,2-4.67c1.25-3.27,2.3-6.63,3.66-9.86s2.85-6.44,4.3-9.64c2.88-6.34,5.68-12.69,8.07-19.23,1.15-3.15,2.28-6.32,3.61-9.41.65-1.52,1.35-3,2.13-4.49s1.53-2.63,2.23-4a27.94,27.94,0,0,1,2-3.52,9.69,9.69,0,0,1,3-2.61,29.11,29.11,0,0,1,4-1.89,6.5,6.5,0,0,1,1.78-.42,4.21,4.21,0,0,0,1.86-.41C372.34,43.91,363.46,43.06,364.25,42.57ZM306.3,48a8.54,8.54,0,0,1,5.24,1.51,7.42,7.42,0,0,1,2,2.88,21.35,21.35,0,0,1,1.84,9.29,11.83,11.83,0,0,1-.8,4.25,8.41,8.41,0,0,1-3.25,3.61,41,41,0,0,1-5,2.5c-2,.95-3.93,2.07-5.9,3.09-4.29,2.23-8.62,4.36-12.92,6.58s-8.56,4.35-12.93,6.35S265.7,92,261.21,94s-8.74,3.8-12.93,6.1c-2,1.11-4,2.24-6.05,3.32a47,47,0,0,1-6.29,3c-1.08.38-2.19.66-3.28,1s-2.27.83-3.39,1.29c-2.32.94-4.65,1.85-7,2.76-9.23,3.61-18.21,7.72-27.16,12-4.49,2.14-9,4.28-13.48,6.38s-8.9,4-13.33,6.08c-8.38,3.91-16.6,8.21-25.25,11.5-3.22,1.23-6.83,2.72-8.56,5.94a15.39,15.39,0,0,0-1.43,5.83c-.21,2.17-.3,4.37-.71,6.52a58.11,58.11,0,0,0-.89,6.58c-.15,2.31-.23,4.62-.43,6.92-.11,1.17-.25,2.34-.45,3.5a9.86,9.86,0,0,0-.21,1.61v9.58c0,2.55,0,5.1-.17,7.64s-.4,4.88-.66,7.32-.56,4.75-1,7.09a45.47,45.47,0,0,0-.85,7.08c0,1.21-.1,2.42-.2,3.63s-.39,2.3-.44,3.45-.11,2.44-.17,3.67-.34,2.19-.44,3.28c-.21,2.31-.22,4.62-.51,6.92q-.09.76-.24,1.53a11.48,11.48,0,0,0-.1,1.95c0,1.26,0,2.52-.07,3.78s0,2.52-.07,3.78c0,1-.17,2.08-.17,3.13s.11,2.07.1,3.11a19.32,19.32,0,0,1-.39,3c-.7,4.46-.23,9-.5,13.5a29.25,29.25,0,0,1-.35,3.23,20.7,20.7,0,0,0-.17,3.61c0,1.06-.08,2.1-.09,3.15a24.21,24.21,0,0,1-.06,2.95c-.15,1.09-.39,2.15-.5,3.24s-.18,2.28-.22,3.43c-.09,2.29-.07,4.6-.22,6.89s-.7,4.45-1,6.71a44.58,44.58,0,0,1-.73,6.21,6.86,6.86,0,0,1-3,4.35,19.57,19.57,0,0,1-5.33,1.89c-2.15.59-4.27,1.22-6.43,1.74s-4.59,1.06-6.88,1.58c-4.1.93-8.27,2.34-12.51,1.8-2.82-.35-5.73-1.86-7-4.55s-.82-6.2-.21-9.12a57.33,57.33,0,0,0,1-6.39,66.82,66.82,0,0,1,.84-6.91,21.74,21.74,0,0,0,.14-3.7c0-1.25,0-2.5.08-3.75a19.11,19.11,0,0,1,.14-2.93c.1-.59.18-1.19.25-1.79.19-1.58.33-3.17.4-4.76a20.91,20.91,0,0,0-.06-4.11,61.18,61.18,0,0,0-1.48-6.26q-.86-3.24-1.9-6.42a84.38,84.38,0,0,0-4.89-11.75c-1.51-2.94-3.78-5.49-4.67-8.74-1.07-3.92,1.34-7.72,3.38-10.89a45.19,45.19,0,0,0,3.19-5.58c1-2.16,1.79-4.4,2.76-6.57s2.09-4.25,3.1-6.38a39,39,0,0,0,2.43-6.55c.3-1.14.57-2.29.83-3.44a22.51,22.51,0,0,0,.71-3.51c.15-2.54.1-5.11.15-7.66a27.64,27.64,0,0,1,.16-3.53,20.58,20.58,0,0,0,.17-3c0-2.2-.08-4.4,0-6.6.08-3.73.49-7.87-.92-11.42a8.31,8.31,0,0,0-1.19-2.09,2,2,0,0,0-.4-.47,2.84,2.84,0,0,0-.88-.05c-.55,0-1.11,0-1.66,0a25.83,25.83,0,0,0-6,1.37,25.3,25.3,0,0,1-3.06.86c-1.14.21-2.29.29-3.42.48a46,46,0,0,0-6.25,2c-2.33.76-4.84.71-7.27.87a35.68,35.68,0,0,0-3.53.61c-1.14.19-2.29.35-3.45.46a53.52,53.52,0,0,1-13.26-.36,65.64,65.64,0,0,1-22.7-8.11,33.2,33.2,0,0,1-9.1-7A13.33,13.33,0,0,1,.76,156a20.49,20.49,0,0,1-.7-4.74,29.08,29.08,0,0,1,1-10c1-3.32,2.05-6.64,3.32-9.87,2.42-6.16,5.74-12.69,11.42-16.39,2.73-1.77,6.11-3,9.35-2.13,3,.8,5.27,3.06,7.15,5.41.83,1,1.55,2.13,2.41,3.13a23.5,23.5,0,0,0,3.48,3.21,50,50,0,0,0,9.66,5.77,24.47,24.47,0,0,0,8.89,2.59,31.53,31.53,0,0,0,9.59-.75A252.67,252.67,0,0,0,94,123.8q3.26-1.22,6.48-2.54c2.17-.89,4.54-1.14,6.74-2s4.61-1.7,6.91-2.57,4.48-1.93,6.78-2.61l7.23-2.12c2.36-.7,4.61-1.66,6.91-2.56,4.52-1.77,9.09-3.42,13.65-5.11s8.91-3.51,13.39-5.2,9.3-2.84,13.85-4.53,8.9-3.55,13.41-5.19,9-3.16,13.51-4.69c9.08-3.07,18.18-6.09,27.09-9.66,2.24-.89,4.45-1.79,6.76-2.49s4.63-1.34,6.87-2.26c4.39-1.8,8.84-3.45,13.32-5,9-3.14,18-6,26.85-9.59,2.14-.86,4.42-1.29,6.56-2.15s4.31-1.66,6.47-2.46a46.09,46.09,0,0,1,5.2-1.76A13.23,13.23,0,0,0,306.3,48C308.52,48,305.11,48.8,306.3,48Zm187.14-5.43c-.36-1.51-.33-3.08-.68-4.59a31.1,31.1,0,0,0-1.08-3.26,52.69,52.69,0,0,0-2.37-5.52,32,32,0,0,0-6.54-9c-6.33-5.94-15-7.83-23.43-7.9a3,3,0,0,0-1.45.18,5.26,5.26,0,0,1-1.12.37,15.82,15.82,0,0,1-3,.33c-2.25.09-4.49,0-6.74.1a37.2,37.2,0,0,0-7.37,1.49,48.63,48.63,0,0,0-7.89,2.7c-5.29,2.41-10,6.25-14.3,10.12-2.25,2-4.42,4.15-6.56,6.3s-4.43,4.25-6.43,6.57a30.91,30.91,0,0,0-4.71,7.66c-1.27,2.82-2.73,5.48-4.21,8.18-3,5.47-4.36,11.45-5.62,17.51-.32,1.51-.63,3-1,4.53-.16.73-.32,1.46-.49,2.18a13.26,13.26,0,0,0-.32,2.43c0,.81,0,1.64-.13,2.45s-.27,1.52-.35,2.28a39.28,39.28,0,0,0-.2,4.34,81.2,81.2,0,0,1-.17,9.1c-.17,1.42-.54,2.79-.57,4.22s.13,3.08.18,4.63a11.37,11.37,0,0,1-.51,4.22,12.84,12.84,0,0,1-1.63,3.14c-1.35,1.92-3.1,3.49-4.61,5.28a16.16,16.16,0,0,0-2,2.87,10.43,10.43,0,0,0-1.09,3.91,44,44,0,0,1-.46,4.43c-.31,1.58.14,3.28-.1,4.87s-.54,2.93-.73,4.41-.33,3-.44,4.45c-.24,3.31-.26,6.63-.31,9.95,0,2.9-.93,6.06.48,8.78,1.07,2.06,3.16,3.42,4,5.6.79,2,.64,4.48.47,6.56,0,.51-.1,1-.18,1.51a13.89,13.89,0,0,0-.12,2.14l-.09,5.22c0,1.66,0,3.33-.09,5-.08,1.31-.44,2.62-.55,3.93a19.09,19.09,0,0,0,0,4.07c.15,1.18.39,2.33.46,3.52.12,2.17-.15,4.62.73,6.67a4.42,4.42,0,0,0,4.58,2.46c4.11-.18,7.92-2.4,11.61-4,4.39-1.89,8.93-3.44,13-6a20.89,20.89,0,0,0,5.2-4.49,16.72,16.72,0,0,0,3-6.63c1.34-5.66,1-11.59,1.69-17.34.19-1.52.55-3,.75-4.52s.14-3.13.21-4.69.46-3,.52-4.55-.05-2.93-.1-4.4c-.07-2.07-.07-4.51,1.51-6.07a11,11,0,0,1,4.12-2.28,68,68,0,0,1,12.48-2.78c1.82-.3,3.64-.57,5.45-.93s3.72-.28,5.14,1.22a8.2,8.2,0,0,1,1.91,5.53c0,1.16-.31,2.27-.31,3.42a13.93,13.93,0,0,1-.05,2.33,18.36,18.36,0,0,0-.26,2.35c-.09,1.52-.08,3-.23,4.57s-.55,3-.82,4.5c-.57,3.12-1.09,6.24-1.65,9.36a34.76,34.76,0,0,0-.29,4.78c-.05,1.35-.4,2.66-.46,4a21.06,21.06,0,0,0,.95,7.14,8,8,0,0,0,3.87,4.94,11.13,11.13,0,0,0,7.2,1c1.22-.16,2.41-.45,3.63-.6,1.46-.17,2.93-.24,4.41-.33,2.58-.14,5.32-.25,7.72-1.34,5-2.27,6.52-8.7,7.28-13.66.45-2.94.69-5.91,1-8.87.16-1.47.33-2.95.56-4.42s.62-2.94.8-4.42.09-3.19.27-4.77.31-3.17.41-4.77.23-3.44.35-5.16a39.38,39.38,0,0,1,1-5c.63-3.24,1.2-6.49,1.83-9.74s1.56-6.22,1.75-9.4c.05-.79.08-1.59.13-2.39s.21-1.52.3-2.29c.19-1.62.11-3.32.16-5A14.14,14.14,0,0,1,491,115c.14-.77.25-1.55.34-2.33.18-1.58.26-3.18.33-4.77a78.24,78.24,0,0,1,.81-9.18,19.53,19.53,0,0,0,.13-2.29c.05-.93.09-1.87.13-2.8.07-1.46.4-2.87.61-4.32.92-6.36.74-12.83.74-19.24V67.68a23.25,23.25,0,0,1,0-2.64c.11-1,.31-1.89.39-2.86a60.55,60.55,0,0,0,.2-7,60,60,0,0,0-1.28-12.61ZM458.2,91.18a7.07,7.07,0,0,1-4.27,4.1,22,22,0,0,1-6.5.9,43.46,43.46,0,0,0-7.2.69c-1.73.37-3.42,1-5.14,1.41a25.06,25.06,0,0,1-6.07,1,4.55,4.55,0,0,1-3.85-1.55c-1-1.4-1-3.44-1-5.09,0-2.12.28-4.23.49-6.34.45-4.65-.16-9.42.78-14,1-5.15,5-9.45,9.36-12a20.24,20.24,0,0,1,3.68-1.73,21.74,21.74,0,0,1,4.39-.87c.76-.1,1.52-.2,2.28-.33a10,10,0,0,1,2.1-.25,7.79,7.79,0,0,0,1.08,0,4.33,4.33,0,0,0,.73-.18,7.32,7.32,0,0,1,2,.06,10,10,0,0,1,5.13,1.64,7,7,0,0,1,2.45,3.65c1.11,3.63.6,7.71.45,11.44-.19,4.83.32,9.74-.26,14.55a11.28,11.28,0,0,1-.65,2.87C455.43,98,459.53,87.9,458.2,91.18Zm-214,38.59a11,11,0,0,1,1.9.12c.57.09,1.26.11,1.61.58a11,11,0,0,1,2.1,2.92c.76,2.19.26,4.82-.18,7a14.11,14.11,0,0,0-.27,1.47c-.06.78-.06,1.57-.09,2.35l-.09,2.36a16.2,16.2,0,0,1-.4,2.38,42.74,42.74,0,0,1-1.75,7.33c-.51,1.33-.8,2.74-1.35,4.05a13.56,13.56,0,0,1-2,3.19,25.63,25.63,0,0,1-5.59,5.06c-4.32,3-9.18,5.08-13.78,7.56a138.22,138.22,0,0,1-16.74,8.14c-2.94,1.11-5.91,2.12-8.82,3.29-2.55,1-4.92,2.18-6.72,4.34a7.76,7.76,0,0,0-1.77,3.35,40.9,40.9,0,0,0-.11,4.29c-.07.87-.27,1.74-.35,2.62s-.13,1.9-.15,2.85,0,2,.07,3a5.11,5.11,0,0,0,.49,2.18,4.22,4.22,0,0,0,1,1.11c.41.33,1,.95,1.48,1a11.38,11.38,0,0,0,4.09-.53,36.51,36.51,0,0,1,3.88-.93l4.77-.7a19.79,19.79,0,0,0,4.28-1.38c1.42-.56,2.83-1.14,4.27-1.66,2.32-.84,4.76-1.37,7.1-.25a6.89,6.89,0,0,1,3.63,4.94,36.76,36.76,0,0,1,.45,8.58,45,45,0,0,1-.55,7,20.1,20.1,0,0,1-10.92,15.72,64.85,64.85,0,0,1-10.37,4.69c-2.54.88-5.15,1.49-7.66,2.45-2.26.87-4.42,2-5.66,4.18a7.07,7.07,0,0,0-.94,3.38,7.82,7.82,0,0,0,1,3.62,1.85,1.85,0,0,0,.82.88,7.44,7.44,0,0,0,1.24.59,6.7,6.7,0,0,0,3.21.06,21,21,0,0,0,3.56-1.5,30.91,30.91,0,0,1,4.11-1.25,66,66,0,0,0,8.55-3.53c2.86-1.25,5.71-2.57,8.62-3.68,2.71-1,5.57-1.56,8.15-2.93,2.38-1.26,4.59-2.84,7-4a7.81,7.81,0,0,1,3.94-1.05,8,8,0,0,1,1.6.5,1.42,1.42,0,0,1,.66.33,5.68,5.68,0,0,1,.55.83,6.45,6.45,0,0,1,1.16,3.33,16,16,0,0,1-.27,3.38c-.24,1.37.07,2.79-.12,4.16s-.24,2.63-.32,4c0,.62-.08,1.23-.17,1.84a13.58,13.58,0,0,0-.1,2.21,35.89,35.89,0,0,1-.46,3.84c-.28,2.53-.35,5.08-.71,7.6a13.12,13.12,0,0,1-2.35,6.31,21.11,21.11,0,0,1-5.26,4.8c-4.26,2.83-9.13,4.55-13.94,6.19-5.76,1.95-11.42,4.11-17.3,5.66-3.05.8-6.12,1.53-9.17,2.33s-6,1.65-9.07,2.38c-1.44.35-2.85.83-4.28,1.2s-2.87.69-4.32,1c-2.81.61-5.6,1.24-8.38,2a12.73,12.73,0,0,1-3.92.6,9.24,9.24,0,0,1-3.89-1.19,11.64,11.64,0,0,1-4.73-5.09c-2.25-4.25-3-9.16-3.46-13.9a170.26,170.26,0,0,1-.41-17.5q.09-4.83.16-9.68c0-1.51-.31-3-.42-4.5s-.15-2.93-.26-4.4a18.62,18.62,0,0,0-.69-4.19,21.07,21.07,0,0,0-1.57-3.62c-1.11-2.13-2.64-4.47-2.76-6.95a15.5,15.5,0,0,1,1.24-5.92c.69-1.9,1.54-3.73,2.38-5.57a27.52,27.52,0,0,0,2-6.41c.55-2.9.78-5.86,1.15-8.79.21-1.56.59-3.1.78-4.65s.08-3.35.12-5a30.44,30.44,0,0,1,.26-4.48,36.7,36.7,0,0,0,.4-4.32c.06-1.49,0-3,0-4.47a14.54,14.54,0,0,1,.05-2.19c.12-.82.3-1.63.41-2.45.42-2.93.67-5.86,1.33-8.75a39.47,39.47,0,0,1,1.71-6.81,8.43,8.43,0,0,1,4.85-4.54c1.24-.51,2.52-.87,3.77-1.32a44.38,44.38,0,0,0,4.07-1.78c2.73-1.31,5.43-2.71,8.24-3.84s5.94-1.69,8.86-2.69,5.8-2.4,8.65-3.67,5.74-2.59,8.62-3.88a65.16,65.16,0,0,1,8.35-3.44,51.2,51.2,0,0,0,8.29-2.63c2.69-1.31,5.23-2.91,7.89-4.28a74,74,0,0,1,8.27-3.21,24.5,24.5,0,0,0,4-2.16c1-.62,2.35-.73,3.29-1.49C245.63,129.74,243.44,130.4,244.22,129.77Zm235.3,97.63a12.73,12.73,0,0,1,4.91.57,5,5,0,0,1,2.77,3,14.61,14.61,0,0,1,.55,2.14,16.8,16.8,0,0,1,.46,2.61c0,1.08,0,2.16,0,3.23a12.91,12.91,0,0,0,.36,2.62A49.26,49.26,0,0,1,489.75,253a26.7,26.7,0,0,1-.28,3c-.07.45-.19.91-.23,1.36s0,1.08,0,1.61a25,25,0,0,1,0,3.12,15.55,15.55,0,0,0-.14,2.46,54.61,54.61,0,0,1,.16,5.57c-.12,1.6-.51,3.15-.58,4.77a40.36,40.36,0,0,0,.78,9.75,40.36,40.36,0,0,1,.32,5.92,14.33,14.33,0,0,0,1.52,5.23,41.58,41.58,0,0,1,2.07,5.08,9.53,9.53,0,0,1,.3,4.08,41,41,0,0,1-2.58,8.67,24,24,0,0,0-1.17,3.44c-.2,1-.21,2.08-.31,3.1s-.21,2.19-.32,3.28l-.63,6.56c-.19,2-.54,4-.54,5.94a18.88,18.88,0,0,1,0,2.38,22.59,22.59,0,0,0-.29,2.84c0,1,.05,2,0,3s-.2,1.86-.2,2.8v6.55c0,.93-.18,1.85-.15,2.79s.13,2.11.15,3.17c0,2.14,0,4.28,0,6.42a40.29,40.29,0,0,0,.17,6.41,18.82,18.82,0,0,1-1,10.27,10.21,10.21,0,0,1-2.33,3.53,8.19,8.19,0,0,1-3.34,1.81,38.77,38.77,0,0,1-9.28,1.38c-3,.16-6,.58-9.07.74-2.64.14-5.7.17-8-1.34s-2.78-4.06-3-6.53a74.13,74.13,0,0,1,0-9.66c.13-3.85.07-7.71.07-11.57q0-6.39,0-12.79c0-4.12.1-8.25.09-12.37a54.87,54.87,0,0,0-.25-5.74c-.15-1.38-.51-2.73-.63-4.11a72.32,72.32,0,0,1,.09-7.65c.05-2.12.25-4.71-.67-6.69a2,2,0,0,0-2.5-1.21,6.67,6.67,0,0,0-1.9,1.05,14.63,14.63,0,0,0-1.4,1.44c-1,1.16-1.92,2.38-2.83,3.61a13.59,13.59,0,0,1-1.29,1.63,21,21,0,0,0-2.2,2.32c-2.41,3.29-4.76,6.62-7,10.06a54.89,54.89,0,0,0-5.13,9.24,54,54,0,0,1-2.85,6.91,8.69,8.69,0,0,1-2.11,2.63,5,5,0,0,1-1.34.77,3.34,3.34,0,0,1-1.64.28c-.17,0-.36-.2-.53-.26s-.35-.1-.51-.17a3.55,3.55,0,0,1-1.1-.74,15,15,0,0,1-1.69-1.95,22.43,22.43,0,0,0-1.6-2c-.61-.66-1.3-1.25-1.94-1.88-2.75-2.69-3.72-6.64-5.94-9.72a61.38,61.38,0,0,0-7.08-7.78,17,17,0,0,0-3.69-2.89A7.71,7.71,0,0,0,392,322a2.78,2.78,0,0,0-1.07-.12,4.79,4.79,0,0,0-1.26.92c-1,.8-1,2.73-1.09,3.89-.08,1.62,0,3.24.05,4.86.12,4.17,0,8.36-.07,12.53l-.06,6.53c0,1.1,0,2.21,0,3.32,0,.5,0,1,0,1.54s-.15.8-.2,1.21c-.44,3.56-.05,7.24,0,10.82s.34,7.09.24,10.63a37.4,37.4,0,0,1-.5,4.72c-.27,1.68.13,3.39-.11,5.07a30.33,30.33,0,0,0-.35,3c0,1,0,2.07-.09,3.11s-.23,1.95-.26,2.95l-.09,3.29a22,22,0,0,1-.13,3.15c-.17.95-.38,1.9-.58,2.85a18.37,18.37,0,0,1-1.63,5.11c-1.57,2.86-4.33,4.78-7.11,6.33-2.62,1.45-5.34,2.7-7.86,4.34a52.33,52.33,0,0,1-7.14,4.13c-2.63,1.16-5.38,1.85-8.18.93a6.13,6.13,0,0,1-4.29-4.24,28.19,28.19,0,0,1-.73-3.52c-.11-.68-.23-1.37-.37-2.05a14.67,14.67,0,0,1-.15-2.89c0-.85-.16-1.68-.14-2.54s.09-1.76.11-2.65c0-1.75-.41-3.44-.47-5.19s.05-3.72.08-5.58c0-2.11,0-4.21,0-6.31,0-4.37,0-8.73,0-13.1,0-7.86-.36-15.79-3-23.26-1.24-3.52-3-7.26-2.82-11.08.16-3.44,1.55-6.61,2.73-9.79,2.66-7.13,3.1-15.12,3.1-22.67V285.86c0-3.84-.18-7.71,0-11.55a23.41,23.41,0,0,1,.73-5.07,16,16,0,0,1,2.08-4.36,24.78,24.78,0,0,1,6.9-6.6c2.91-2,6-3.76,9.08-5.45a107.39,107.39,0,0,1,10.25-5c2.94-1.21,6.76-2.54,9.7-.62a12.75,12.75,0,0,1,3.16,3.76,30,30,0,0,0,4.07,4.29,39.64,39.64,0,0,1,4.32,4.47c1.13,1.51,2.24,3,3.39,4.53a45.14,45.14,0,0,0,7.57,8.05c1.93,1.53,3.29,3.68,5.33,5.1a5.12,5.12,0,0,0,3.46,1.05,4.86,4.86,0,0,0,2.63-1.32,31,31,0,0,0,5-6.19c1.4-2.05,2.69-4.17,4.05-6.23,2.35-3.55,4.72-7.08,7.14-10.58a92.17,92.17,0,0,1,7.43-10,36.63,36.63,0,0,0,3.33-4c.87-1.29,1.67-2.62,2.52-3.92a29.14,29.14,0,0,1,2.81-3.8,12.72,12.72,0,0,1,3.54-2.59,24.06,24.06,0,0,1,4.81-1.82,11.41,11.41,0,0,1,2.65-.52,11.27,11.27,0,0,1,2.58.34,18.26,18.26,0,0,0,3.11.55c1.17,0,2.34,0,3.51-.07s2.39-.18,3.58-.37a5.94,5.94,0,0,0,2.2-.55C482,227.39,478.38,228.12,479.52,227.4Zm131.2,50.27c-2.55-3.67-4.24-7.89-5.94-12a73.55,73.55,0,0,1-2.29-7.3c-.36-1.21-.66-2.46-1.08-3.65-.32-.9-.73-1.78-1.1-2.66a130,130,0,0,0-10.8-21.31,56.46,56.46,0,0,0-7.19-9,36.13,36.13,0,0,0-4-3.5,13.86,13.86,0,0,0-4.91-2.61c-2-.49-4-.55-6-.91-2.15-.39-4.26-.93-6.42-1.27a67.51,67.51,0,0,0-6.94-.75c-.6,0-1.2-.06-1.81-.07a6.31,6.31,0,0,0-1.79,0,8.36,8.36,0,0,1-1.57.38c-3,.26-6.12-.76-9.13-.25a29,29,0,0,1-6,.24,23.81,23.81,0,0,0-6.08.22c-3.16.68-6.31,1.47-9.38,2.45-2.87.92-6.06,2-8.39,4a10.22,10.22,0,0,0-2.54,3.93,28.6,28.6,0,0,0-1.63,6c-.39,2.16-.65,4.34-1,6.51s-.94,4.48-1.09,6.74.07,4.43.08,6.64c0,1.06-.12,2.09-.19,3.15-.09,1.23,0,2.5,0,3.73a50.12,50.12,0,0,1-.19,7.15,48,48,0,0,0-.39,6.23c0,2.25,0,4.49,0,6.74a30.41,30.41,0,0,1-.33,5.88,72.39,72.39,0,0,0-.87,13.64q0,7.42,0,14.85v3.92c0,.59,0,1.19,0,1.78s-.17,1.06-.24,1.59a52.34,52.34,0,0,0-.47,6.5c-.09,4.64.16,9.27.13,13.91,0,4.41-.38,8.92.38,13.28a17.7,17.7,0,0,1,.11,4.93c-.16,1.58-.45,3.17-.49,4.77-.07,2.44,0,4.89,0,7.33,0,2,0,4,.23,6a24.13,24.13,0,0,0,2.6,9.66,11.32,11.32,0,0,0,6.77,5.38,22.72,22.72,0,0,0,6.26.6q3.15,0,6.28,0c3.36,0,7.13,0,10.16-1.72a7.66,7.66,0,0,0,3.06-3.07,12.2,12.2,0,0,0,1.12-4.61,29.51,29.51,0,0,0,0-5.56c-.08-.84-.28-1.66-.37-2.49a32.32,32.32,0,0,1,.05-3.81c0-2.53.09-5.06.13-7.59,0-2.13-.17-4.26,0-6.39a6.53,6.53,0,0,1,1.95-4.66,11.5,11.5,0,0,1,5.8-2.66c4.29-.6,8.55,1.11,12.84.45a40.13,40.13,0,0,0,6.69-1.9A63.77,63.77,0,0,0,571,344a46.29,46.29,0,0,0,5.82-3.19c.4-.27.8-.54,1.19-.82a11,11,0,0,0,1.39-1.34l2.73-2.75a31.53,31.53,0,0,1,2.54-2.22,18.92,18.92,0,0,0,2.41-2.24,30.83,30.83,0,0,0,3.36-5c4.2-7.33,6.78-15.46,10.9-22.83a33,33,0,0,1,3-4.64c1.11-1.36,2.36-2.6,3.59-3.85,2.44-2.5,5-5.18,6-8.62a6.23,6.23,0,0,0-.42-5,41.41,41.41,0,0,0-2.8-3.81C608.11,273.91,611.93,279.4,610.72,277.67Zm-42.63,13.56c-.52,2.51.1,5.3-.92,7.69a13,13,0,0,1-4.85,5.25,18.22,18.22,0,0,1-7,3,20.74,20.74,0,0,1-6.53-.17,30.23,30.23,0,0,0-3.29-.44c-1,0-2,0-3-.11a4.74,4.74,0,0,1-4.09-3.78,14,14,0,0,1-.24-3.77l.12-4.28c.09-3.24.1-6.47.21-9.7s.42-6.28.42-9.44v-9.64c0-1.55,0-3.12,0-4.68s-.32-2.84-.39-4.27a6,6,0,0,1,.86-3.81,4.5,4.5,0,0,1,2.24-1.48,12.1,12.1,0,0,0,1.28-.56,2,2,0,0,1,.68-.3,9.87,9.87,0,0,1,1.09,0c1.28,0,2.57,0,3.85,0a19.77,19.77,0,0,1,7.08,1.06c4.07,1.7,6.8,5.45,8.65,9.33a47.51,47.51,0,0,1,2.5,6.65,50.34,50.34,0,0,1,1.62,6.51,51.83,51.83,0,0,1,.09,14c-.11,1-.26,2-.46,2.92ZM333,307.71a32.35,32.35,0,0,1-.32-4.51,14.86,14.86,0,0,0-.84-3.48,36.23,36.23,0,0,0-2.43-5.78,18.48,18.48,0,0,0-8.16-8.22,19,19,0,0,0-6.39-1.68,9.88,9.88,0,0,0-2-.11c-.4,0-.8.24-1.22.3-1,.14-2.1.09-3.14.15a15.93,15.93,0,0,0-3.58.9c-1.5.47-3,1-4.48,1.47a48.92,48.92,0,0,0-8.41,3.54c-1.29.74-2.54,1.55-3.83,2.3a42,42,0,0,1-4.17,2c-2.85,1.26-5.71,2.52-8.53,3.85s-5.57,2.72-8.26,4.27a31.81,31.81,0,0,0-7.25,5.23c-2,1.84-4.23,3.47-6.32,5.24a66.13,66.13,0,0,0-5.47,5.25A72.6,72.6,0,0,0,239,330.88a89.63,89.63,0,0,0-6.95,14.81,68.78,68.78,0,0,0-2.51,8.17c-.69,2.95-1.19,5.95-1.68,8.93s-1,6.14-1.61,9.18a29.85,29.85,0,0,0-.77,4.6c-.08,1.57-.3,3.13-.34,4.7l-.21,10.13c0,1.65-.06,3.3-.1,5a15.79,15.79,0,0,1-.37,4.76,29.36,29.36,0,0,1-3.58,6.34,14.3,14.3,0,0,0-2.49,7.33c-.08,2.92.49,5.84.12,8.75-.22,1.68-.46,3.31-.53,5-.08,2-.1,4.08,0,6.12a16.77,16.77,0,0,0,.83,5.07c1,2.76,2.5,5.3,3.32,8.1.77,2.64.42,5.55.37,8.25-.07,4.6-.44,9.16-.71,13.74-.26,4.39-.48,8.95.44,13.28.68,3.18,2.41,7.16,6,7.81a13.39,13.39,0,0,0,6-.69c2-.6,4-1.4,5.95-2.17,4.71-1.86,10.31-2.4,14.31-5.74a16.27,16.27,0,0,0,4.26-6.14,46.78,46.78,0,0,0,2.53-7.72,22.24,22.24,0,0,0,.4-4.38,32.53,32.53,0,0,1,.55-4.28,52.94,52.94,0,0,0,.63-8.44c0-2.83,0-5.66,0-8.49a68.41,68.41,0,0,1,.06-8.35,10,10,0,0,1,2.65-6.28,21.3,21.3,0,0,1,5.94-3.88c5.51-2.76,10.81-5.91,16.2-8.91,1.65-.92,3.84-1.87,5.45-.34,1.12,1.06,1.26,3.06,1.38,4.49a57,57,0,0,1,.05,6.27c-.07,2.54,0,5.08-.06,7.61a32.81,32.81,0,0,1-.29,4.65c-.15,1-.38,2-.52,3a52.35,52.35,0,0,0-.46,6.13,58,58,0,0,0,.22,6.59,19.6,19.6,0,0,0,1.07,5.26,6.36,6.36,0,0,0,4.94,3.63c2.46.5,4.93-1.11,7-2.19,5.13-2.65,10.12-5.57,15-8.71a25.58,25.58,0,0,0,4.71-3.71,17.21,17.21,0,0,0,3.46-5.35,18.08,18.08,0,0,0,1.22-3.93c.26-1.51.26-3.05.42-4.57.11-1.15.39-2.27.57-3.41s.3-2.35.38-3.53a20.82,20.82,0,0,0,0-3.35c-.12-1.29-.46-2.57-.62-3.86a77.16,77.16,0,0,1-.45-9.37v-5.05c0-.38,0-.77,0-1.15a6.5,6.5,0,0,1,.24-1.06,14.3,14.3,0,0,0,.33-2.35c.11-1.56,0-3.14.08-4.7a29.3,29.3,0,0,1,.55-4.49c1-5.93.57-12.06.57-18.05V353.58c0-6.41,0-12.82-.14-19.22-.08-2.92-.13-5.84,0-8.76a39.89,39.89,0,0,1,.37-4.08c.13-1,.38-1.91.47-2.87a37.82,37.82,0,0,0,0-5.83,35,35,0,0,0-.55-5.11C332.5,305.37,333.44,309.81,333,307.71Zm-39.94,37.13a37.52,37.52,0,0,0-.66,7.63c0,2.72,0,5.45,0,8.18,0,2.53.17,5.08-.05,7.61a10.42,10.42,0,0,1-1.94,5.67c-2.5,3.22-6.49,5-10,6.93-3.19,1.73-6.27,4.27-10,4.75a5.29,5.29,0,0,1-5-1.79,9.82,9.82,0,0,1-1.64-5.33c-.22-2.56-.13-5.16-.13-7.74,0-1.14.07-2.29,0-3.43a29.81,29.81,0,0,0-.52-3.64A24,24,0,0,1,265,350.42a27.07,27.07,0,0,1,7.07-9.35,28.32,28.32,0,0,1,4.38-3.16,26.39,26.39,0,0,1,3.58-1.66c.61-.24,1.22-.46,1.85-.67a12.45,12.45,0,0,1,2-.4c.65-.11,1.32-.29,2-.34a7.83,7.83,0,0,1,1.91.25,8.14,8.14,0,0,1,3.05,1.12c1.67,1.11,2.13,3.24,2.32,5.13a11.41,11.41,0,0,1-.13,3.5C292.14,349.15,293.62,342.21,293.06,344.84Zm-131.42-8.35a57.25,57.25,0,0,1,17.27,2.2c3,.89,6.05,1.62,9,2.71a25.87,25.87,0,0,1,7.47,4.33,43.85,43.85,0,0,1,10.55,13.47c2.81,5.28,5.19,11.06,5.73,17.08a23.1,23.1,0,0,1-1.09,9.66,21.59,21.59,0,0,1-1.81,4,7.93,7.93,0,0,1-2.82,2.73c-4.7,2.84-10.47,3.61-15.74,4.72-2.68.56-5.35,1.48-8.13,1.12a8,8,0,0,1-3.53-1.26,7.07,7.07,0,0,1-2.22-3,28,28,0,0,1-1.49-4.27c-.2-.74-.42-1.47-.6-2.21s-.16-1.48-.33-2.21c-.46-2-2.31-3.52-3.92-4.59a20.21,20.21,0,0,0-7.19-2.9,16.9,16.9,0,0,0-7.87.36,37.94,37.94,0,0,0-8.07,3,15.69,15.69,0,0,0-5.89,5.52c-3,4.71-4.12,10.27-5.56,15.6-.9,3.34-1.77,6.69-2.57,10.07a58.2,58.2,0,0,0-1.62,7.61,65.59,65.59,0,0,0,0,12.61c.09.89.28,1.75.41,2.64a36.29,36.29,0,0,1,.25,5.11c0,.83,0,1.65.06,2.48s.25,1.76.34,2.65,0,1.66,0,2.46a9.69,9.69,0,0,0,.43,2.44,53,53,0,0,0,3.12,8.75,27.46,27.46,0,0,0,4.33,7,19.83,19.83,0,0,0,13.53,6.42,24.46,24.46,0,0,0,16.07-4.68,25.44,25.44,0,0,0,5.54-5.94,22.33,22.33,0,0,0,3.66-7.53,38.82,38.82,0,0,0,.5-4.42,44.35,44.35,0,0,1,.82-4.72,33.84,33.84,0,0,1,2.07-7.54,10.26,10.26,0,0,1,5-5,35.86,35.86,0,0,1,7.94-2.4c1.34-.29,2.71-.7,4.07-.89.79-.11,1.64-.06,2.43-.09l2.67-.09a6.56,6.56,0,0,1,4.07,1.67,9.63,9.63,0,0,1,2.59,3,17.38,17.38,0,0,1,1.58,6.86,24.41,24.41,0,0,1-.06,4c-.06.6-.21,1.19-.25,1.79-.05.87,0,1.75-.06,2.62-.05,1.81,0,3.65-.13,5.46a24.83,24.83,0,0,1-.47,2.55c-.17.92-.33,1.85-.48,2.77-.56,3.31-1.34,6.57-1.84,9.88a24.89,24.89,0,0,1-3.09,7.93,54.26,54.26,0,0,1-4.54,7.05c-6.66,8.79-15.76,15.41-25.25,20.79A64.2,64.2,0,0,1,168,510a29.6,29.6,0,0,1-8.15,2.07c-5.64.47-11.3-.29-16.94-.07-3,.12-6,.23-8.93-.72a25.57,25.57,0,0,1-7.22-3.87,67.71,67.71,0,0,1-6.46-5.14,40.78,40.78,0,0,1-5.24-6,78,78,0,0,1-7.9-14.88c-.6-1.41-1.21-2.81-1.75-4.24a35.72,35.72,0,0,1-1.29-4.66c-.73-3.17-1.82-6.21-2.85-9.29a48.86,48.86,0,0,0-3.39-8.35c-1.54-2.77-2.85-5.68-4.49-8.39a36,36,0,0,1-4-7.94,14.05,14.05,0,0,1,.35-8.92c.46-1.36,1-2.69,1.55-4,.58-1.57,1.12-3.17,1.65-4.76a87.24,87.24,0,0,0,2.72-9.37c1.27-6.15,1.55-12.46,2.92-18.6.7-3.12,1.67-6.19,2.66-9.23s2-5.87,3.22-8.74A73.07,73.07,0,0,1,113,359.23c1.9-2.56,4.53-4.28,6.85-6.4a38.45,38.45,0,0,1,3.66-3.1c1.26-.88,2.57-1.69,3.9-2.45a98.14,98.14,0,0,1,17.46-7.39,76.66,76.66,0,0,1,9.29-2.26,21.41,21.41,0,0,1,4-.66c1.09,0,2.47.14,3.43-.48C168.75,336.39,160.42,337.28,161.64,336.49Z"/></g><g id="Layer_1_copy" data-name="Layer 1 copy"><path class="cls-2" d="M80.79,324.51l-.46-.08c-.08-.16-.18-.3-.25-.46a9.82,9.82,0,0,1-.81-3.94,8.73,8.73,0,0,0,2,.51c3.07.38,6.16-.38,9.43-1.19.8-.2,1.6-.4,2.4-.58l1.63-.37c1.74-.39,3.48-.78,5.22-1.2,1.42-.34,2.86-.75,4.26-1.14l2.11-.59.82-.21a15.22,15.22,0,0,0,4-1.45,4.9,4.9,0,0,0,2.12-3.13,22.9,22.9,0,0,0,.51-3.93c0-.68.1-1.35.18-2,.11-1,.28-2,.44-3,.21-1.26.41-2.44.49-3.64.09-1.41.12-2.88.15-4.29,0-.85,0-1.7.07-2.54,0-1.4.12-2.53.23-3.57.07-.72.19-1.41.31-2.08.07-.41.14-.82.2-1.23a11.44,11.44,0,0,0,.05-1.69c0-.34,0-.67,0-1s0-1,0-1.47,0-1.1,0-1.65v-.48a18.86,18.86,0,0,1,.2-3.47,26.52,26.52,0,0,0,.32-3c.1-1.67.1-3.33.09-5.08a53.39,53.39,0,0,1,.44-8.61l.12-.72a12.46,12.46,0,0,0,.24-2c0-.52,0-1,0-1.55s0-1,0-1.54,0-1.27.09-1.87c0-.44.07-.87.08-1.31l.14-7.56c0-.15,0-.3,0-.45a8.65,8.65,0,0,1,.12-1.85c.1-.46.17-.93.23-1.39.16-1.27.23-2.55.3-3.9,0-1,.11-2,.2-2.95.05-.53.14-1.07.23-1.6a14.68,14.68,0,0,0,.2-1.59l.17-3.67a17.4,17.4,0,0,1,.26-2.14c.07-.47.15-.93.19-1.39.08-1,.13-2,.17-3.12l0-.43a48.89,48.89,0,0,1,.89-7.38c.39-2,.71-4.18,1-6.91.21-1.92.37-3.85.53-5.77l.13-1.51c.17-2,.17-4,.16-6.15v-10.9a8.39,8.39,0,0,1,.19-1.63l0-.32c.17-1,.31-2.08.42-3.34s.2-2.79.28-4.17c0-.9.1-1.8.16-2.71a56.25,56.25,0,0,1,.92-6.81,40.07,40.07,0,0,0,.52-4.51c0-.61.1-1.22.16-1.84a17,17,0,0,1,1.66-6.58c2.16-4,6.64-5.72,9.61-6.86,6.15-2.34,12.22-5.26,18.08-8.09,2.34-1.12,4.68-2.25,7-3.35,2.21-1,4.43-2,6.65-3s4.46-2,6.68-3c3.37-1.57,6.74-3.18,10.11-4.78l3.35-1.59c8-3.79,17.45-8.17,27.29-12l.52-.2c2.14-.84,4.29-1.68,6.43-2.55l.44-.18c1-.41,2-.83,3.11-1.17l1.2-.35c.7-.21,1.36-.4,2-.63a45.2,45.2,0,0,0,5.82-2.75l.2-.11c1.29-.69,2.56-1.39,3.84-2.1l2.19-1.21c4.31-2.37,8.77-4.31,13.09-6.18l1.42-.62c3.94-1.71,8-3.48,12-5.29,4.77-2.19,9.37-4.53,12.85-6.32,2.05-1.06,4.12-2.11,6.18-3.15,2.25-1.13,4.5-2.26,6.73-3.42.71-.37,1.42-.76,2.13-1.14,1.24-.67,2.52-1.36,3.84-2l1.19-.55a28.32,28.32,0,0,0,3.52-1.82,6.42,6.42,0,0,0,2.5-2.71,9.8,9.8,0,0,0,.64-3.52,19.71,19.71,0,0,0-1.28-7.52l.18-.11a9.71,9.71,0,0,1,4.28.9,24.19,24.19,0,0,1,.82,6.84,13.69,13.69,0,0,1-1,5,10.22,10.22,0,0,1-4,4.5,29.26,29.26,0,0,1-4,2.1l-1.15.53c-1.22.58-2.45,1.25-3.64,1.9-.73.39-1.46.79-2.2,1.17-2.25,1.16-4.51,2.3-6.77,3.44l-6.15,3.13c-3.51,1.82-8.17,4.18-13,6.4-4,1.83-8.09,3.61-12.05,5.33l-1.42.62c-4.24,1.84-8.62,3.74-12.77,6-.73.39-1.45.79-2.17,1.19-1.29.72-2.59,1.44-3.9,2.14l-.2.11a47.38,47.38,0,0,1-6.35,3c-.76.27-1.51.49-2.24.7l-1.13.33c-.92.29-1.82.66-2.78,1l-.45.18c-2.15.88-4.31,1.73-6.48,2.57l-.52.2c-9.72,3.81-19.12,8.16-27,11.91l-3.36,1.59c-3.37,1.61-6.74,3.22-10.13,4.8-2.23,1-4.48,2-6.72,3.06s-4.42,2-6.61,3c-2.34,1.09-4.67,2.22-7,3.34-5.94,2.86-12.09,5.82-18.39,8.22-3.2,1.22-6.18,2.52-7.52,5a13.79,13.79,0,0,0-1.2,5.07c-.06.59-.1,1.18-.15,1.77a45,45,0,0,1-.58,4.93,52.92,52.92,0,0,0-.86,6.35c-.06.88-.11,1.77-.16,2.65-.08,1.41-.15,2.86-.28,4.31s-.27,2.56-.46,3.66l-.07.38a4.77,4.77,0,0,0-.12.89v10.88c0,2.12,0,4.31-.17,6.51l-.13,1.5c-.17,2-.33,3.91-.54,5.86-.3,2.85-.63,5.16-1,7.27a44.68,44.68,0,0,0-.82,6.77v.43c-.05,1.07-.09,2.18-.19,3.3,0,.55-.14,1.11-.22,1.67a13.43,13.43,0,0,0-.21,1.69l-.17,3.67a16.48,16.48,0,0,1-.26,2.07c-.07.44-.15.87-.19,1.31-.08.93-.13,1.87-.19,2.8-.07,1.36-.15,2.77-.33,4.18-.07.56-.15,1.11-.26,1.66a5,5,0,0,0,0,1.07c0,.18,0,.36,0,.54l-.14,7.56c0,.51,0,1-.09,1.53s-.08,1.05-.08,1.54,0,.93,0,1.39,0,1.16,0,1.75a14.73,14.73,0,0,1-.3,2.67l-.11.66a49.75,49.75,0,0,0-.39,8c0,1.73,0,3.53-.09,5.32a31.62,31.62,0,0,1-.38,3.45,15.64,15.64,0,0,0-.14,2.78v.5c0,.61,0,1.21,0,1.81s0,.91,0,1.36c0,.29,0,.58,0,.87a14.71,14.71,0,0,1-.09,2.35c-.06.45-.14.9-.22,1.35-.11.63-.21,1.22-.28,1.81-.09.94-.16,2-.21,3.29L119,293.9c0,1.46-.06,3-.16,4.47a39.18,39.18,0,0,1-.54,4.05c-.16.94-.31,1.84-.41,2.75-.07.62-.11,1.25-.16,1.88a26.82,26.82,0,0,1-.62,4.6,8.82,8.82,0,0,1-3.91,5.56,18,18,0,0,1-5.07,1.91l-.79.21-2.08.58c-1.43.4-2.91.82-4.4,1.18-1.76.42-3.52.82-5.28,1.22l-1.63.36-2.32.56a36,36,0,0,1-8.7,1.41A17.83,17.83,0,0,1,80.79,324.51Zm175,40.24c0,.58,0,1.15,0,1.73,0,2,0,4.1.15,6.18a11.58,11.58,0,0,0,2.07,6.4,7.13,7.13,0,0,0,5.67,2.61c.26,0,.53,0,.79-.05a15.43,15.43,0,0,1-.54-3.13c0-.27,0-.55-.05-.83a3.22,3.22,0,0,1-2.74-1.08,8.24,8.24,0,0,1-1.22-4.25c-.16-1.9-.14-3.89-.13-5.82,0-.59,0-1.17,0-1.76,0-.43,0-.87,0-1.31,0-.73,0-1.46,0-2.18a18.06,18.06,0,0,0-.35-2.77c-.07-.37-.13-.74-.19-1.11a22,22,0,0,1,1.59-12.15,25.17,25.17,0,0,1,6.54-8.65,26.39,26.39,0,0,1,4.08-2.93,24.06,24.06,0,0,1,3.3-1.54c.58-.23,1.17-.44,1.76-.64a8.23,8.23,0,0,1,1.22-.24l.5-.08L279,331a10.91,10.91,0,0,1,1.09-.17h.06a6.13,6.13,0,0,1,1,.15l.29.06a6.35,6.35,0,0,1,2.33.82c.71.47,1.14,1.44,1.37,3.09a7,7,0,0,1,.78-.12,7.83,7.83,0,0,1,1.91.25,11,11,0,0,1,1.37.35c0-.1,0-.2,0-.3-.21-2.06-.77-5-3.21-6.6a10.5,10.5,0,0,0-3.77-1.42l-.26-.05a8.17,8.17,0,0,0-2.18-.22,13.66,13.66,0,0,0-1.57.24l-.59.11-.44.07a11.33,11.33,0,0,0-1.89.41c-.65.22-1.3.45-1.94.7a26.75,26.75,0,0,0-3.84,1.8,30.32,30.32,0,0,0-4.7,3.38,29.27,29.27,0,0,0-7.59,10A26.08,26.08,0,0,0,255.31,358l.21,1.23a14.53,14.53,0,0,1,.29,2.18c0,.65,0,1.31,0,2C255.79,363.82,255.78,364.29,255.78,364.75ZM59.61,169.46a20.48,20.48,0,0,1,3.79-1.17c.5-.09,1-.15,1.49-.21.66-.08,1.31-.16,2-.28a24.84,24.84,0,0,0,3-.82l.33-.11a24.6,24.6,0,0,1,5.49-1.27,13.17,13.17,0,0,1,1.4,0,6.65,6.65,0,0,1,.72,1.35,12,12,0,0,1,.75,3.19,18.73,18.73,0,0,1,3-.5c.33,0,.65,0,1,0a16.2,16.2,0,0,0-1-4.15A10.84,10.84,0,0,0,80,162.8a3,3,0,0,0-1-.94,2.77,2.77,0,0,0-1.35-.31h-.43a16.91,16.91,0,0,0-1.88,0,28.37,28.37,0,0,0-6.4,1.45l-.34.11a19.76,19.76,0,0,1-2.48.69c-.57.11-1.15.18-1.72.25s-1.11.14-1.67.23a24.63,24.63,0,0,0-4.53,1.38c-.66.24-1.32.49-2,.71a20.44,20.44,0,0,1-5.21.69l-1.59.08a20.16,20.16,0,0,0-2.58.41l-1.14.23c-1.09.18-2.21.33-3.32.44a51.62,51.62,0,0,1-12.76-.34,63.08,63.08,0,0,1-22-7.88,36.21,36.21,0,0,1-7.09-5c.07.33.15.65.24,1a13.33,13.33,0,0,0,2.75,4.77,24.28,24.28,0,0,0,4.23,3.88A66.31,66.31,0,0,0,29,171.89a55.32,55.32,0,0,0,13.76.37c1.2-.12,2.41-.28,3.59-.48.43-.07.85-.16,1.28-.25a16.67,16.67,0,0,1,2-.34l1.51-.08a23.83,23.83,0,0,0,6.24-.87C58.17,170,58.89,169.73,59.61,169.46Zm64.65,272.8a10.58,10.58,0,0,0,.46,2.81l0,.14a55.3,55.3,0,0,0,3.23,9.08,29.57,29.57,0,0,0,4.66,7.48,21.26,21.26,0,0,0,8.54,5.72c-.36-.34-.72-.68-1.05-1.06a27.46,27.46,0,0,1-4.33-7c-.05-.1-.09-.2-.14-.31l0,0a25.82,25.82,0,0,1-4-6.49,51.3,51.3,0,0,1-3-8.42l0-.14a7.19,7.19,0,0,1-.33-1.79c0-.25,0-.5,0-.75a15.2,15.2,0,0,0,0-1.9c0-.43-.11-.84-.17-1.26s-.14-.91-.17-1.32c0-.79,0-1.58,0-2.37v-.41a33.74,33.74,0,0,0-.26-5c0-.36-.11-.71-.17-1.06s-.18-1-.23-1.48a63.16,63.16,0,0,1,0-12.22A38.74,38.74,0,0,1,128.3,409c.16-.61.31-1.22.45-1.82.72-3,1.53-6.19,2.56-10,.22-.81.43-1.61.64-2.42,1.13-4.37,2.3-8.89,4.68-12.63a13.87,13.87,0,0,1,5.15-4.83,36.3,36.3,0,0,1,7.65-2.87,14.87,14.87,0,0,1,7-.32,17.93,17.93,0,0,1,6.46,2.6,10,10,0,0,1,2.43,2.11A19.51,19.51,0,0,1,170,381l.16.12-.09-.65a10.11,10.11,0,0,0-.2-1.32c-.49-2.11-2.05-4-4.77-5.81a22.08,22.08,0,0,0-7.9-3.2,18.77,18.77,0,0,0-8.79.39,39.7,39.7,0,0,0-8.5,3.22,17.66,17.66,0,0,0-6.62,6.2c-2.71,4.27-4,9.09-5.17,13.76l-.63,2.39c-1,3.86-1.86,7.08-2.59,10.13-.14.58-.29,1.17-.44,1.76a43.18,43.18,0,0,0-1.22,6.11,68.14,68.14,0,0,0,0,13c.06.62.17,1.21.27,1.78,0,.31.11.63.15,1a30.15,30.15,0,0,1,.22,4.42v.41c0,.82,0,1.7.06,2.59a17,17,0,0,0,.21,1.69c.05.34.1.69.14,1a12.65,12.65,0,0,1,0,1.39C124.27,441.68,124.26,442,124.26,442.26Zm90-152c5.31-1.8,10.06-3.53,14.41-6.42a22.48,22.48,0,0,0,5.75-5.26,15.45,15.45,0,0,0,2.73-7.22c.23-1.55.34-3.11.45-4.61.08-1,.16-2.05.27-3.07,0-.43.11-.87.19-1.3a17,17,0,0,0,.29-2.75v-.34a10.84,10.84,0,0,1,.07-1.56c.12-.73.16-1.43.2-2v-.15c.07-1.27.13-2.46.29-3.66a12.79,12.79,0,0,0,.06-2.29,9.4,9.4,0,0,1,.05-1.79,19.26,19.26,0,0,0,.27-2.71,8,8,0,0,0-3.88,1.05l-.22.11c0,.29-.06.56-.11.86a12.34,12.34,0,0,0-.1,2.61,10.79,10.79,0,0,1,0,1.63c-.18,1.35-.26,2.68-.33,4v.16a16.12,16.12,0,0,1-.15,1.64,14.15,14.15,0,0,0-.12,2.2v.32a13.93,13.93,0,0,1-.24,2.11c-.08.5-.17,1-.22,1.51-.12,1.07-.2,2.14-.28,3.21-.11,1.5-.21,2.92-.42,4.33a11.21,11.21,0,0,1-2,5.39,19.11,19.11,0,0,1-4.77,4.33c-4,2.63-8.45,4.25-13.49,6l-4.5,1.56c-4.12,1.44-8.38,2.94-12.66,4.06-1.6.43-3.22.83-4.83,1.23l-4.34,1.1-3.27.88c-1.89.51-3.84,1-5.77,1.5-.82.2-1.63.44-2.44.67-.62.19-1.24.37-1.86.53-1.32.34-2.65.64-4.24,1-2.7.58-5.6,1.24-8.49,2a10.9,10.9,0,0,1-3.31.52,7.11,7.11,0,0,1-3-.95,7.38,7.38,0,0,1-1.15-.76,22.56,22.56,0,0,0,1.47,3.43,15.61,15.61,0,0,0,1.35,2.15,8.17,8.17,0,0,0,1.19.13h.38a15.47,15.47,0,0,0,4.15-.68c2.79-.76,5.63-1.4,8.28-2,1.63-.35,3-.66,4.39-1,.67-.17,1.33-.36,2-.56s1.5-.44,2.26-.62c2-.48,3.95-1,5.86-1.53l3.25-.87c1.42-.37,2.86-.73,4.29-1.08,1.63-.41,3.26-.82,4.88-1.25,4.43-1.17,8.77-2.69,13-4.15Zm-32-42.78a8.94,8.94,0,0,0-1.2,4.35,9.77,9.77,0,0,0,1.26,4.54,3.82,3.82,0,0,0,1.7,1.75l.29.16a5.87,5.87,0,0,0,1.29.57,8.42,8.42,0,0,0,3.59.18,5.71,5.71,0,0,1-.13-1.19,6.93,6.93,0,0,1,.81-3.12,5.34,5.34,0,0,1-.93.31,4.78,4.78,0,0,1-2.23,0,3.84,3.84,0,0,1-.46-.23l-.35-.19,0,0a5.94,5.94,0,0,1-.82-2.69,5,5,0,0,1,.68-2.41c1-1.72,2.8-2.6,4.63-3.3,1.34-.51,2.71-.92,4.16-1.35,1.13-.34,2.29-.68,3.44-1.08a66.85,66.85,0,0,0,10.71-4.84,22.06,22.06,0,0,0,11.9-17.14,47.55,47.55,0,0,0,.58-7.25l0-1a41.75,41.75,0,0,0-.26-6.59,7.08,7.08,0,0,0-4.15-.45,30.86,30.86,0,0,1,.41,7l0,1a43.51,43.51,0,0,1-.53,6.65,18,18,0,0,1-9.93,14.31,62.83,62.83,0,0,1-10,4.54c-1.07.37-2.14.69-3.27,1-1.46.43-3,.88-4.44,1.44C186.55,243.31,183.86,244.63,182.27,247.46ZM290.54,414.33c0-.32,0-.65-.05-1-.14-1.65-.34-4.14-2-5.7-2.85-2.71-6.58-.63-7.81.05l-4.57,2.57c-3.75,2.13-7.64,4.34-11.55,6.29a22.75,22.75,0,0,0-6.47,4.27,12,12,0,0,0-3.21,7.47,54.8,54.8,0,0,0-.11,7c0,.54,0,1.07,0,1.6.06,2.63.06,5.38,0,8.42a52.38,52.38,0,0,1-.6,8.13l0,.26a31.86,31.86,0,0,0-.54,4.28l0,.69a17.18,17.18,0,0,1-.32,3.3,44.78,44.78,0,0,1-2.43,7.39,14.15,14.15,0,0,1-3.7,5.41c-2.38,2-5.49,2.87-8.79,3.81-1.64.47-3.35,1-5,1.6l-.59.23c-1.78.71-3.45,1.37-5.19,1.88a11.75,11.75,0,0,1-5.1.64,2.66,2.66,0,0,1-.38-.1c0,.08,0,.17.05.26a15.6,15.6,0,0,0,1.37,3.93h0a18.58,18.58,0,0,0,5.16-.89c1.91-.56,3.75-1.29,5.53-2l.59-.23c1.44-.57,3-1,4.6-1.47,3.55-1,7.23-2.07,10.25-4.59a18.07,18.07,0,0,0,4.81-6.88,48.52,48.52,0,0,0,2.65-8.06,19.62,19.62,0,0,0,.42-4.1l0-.66a28,28,0,0,1,.48-3.76l.05-.26a57.33,57.33,0,0,0,.65-8.75c0-3.09,0-5.89,0-8.57,0-.54,0-1.08,0-1.62a48,48,0,0,1,.09-6.48,8,8,0,0,1,2.09-5.08,19.43,19.43,0,0,1,5.4-3.49c4-2,7.94-4.23,11.74-6.39l4.54-2.56c2.39-1.33,2.89-.85,3.11-.64.54.51.67,2.15.76,3.21.06.75.08,1.52.09,2.28.36-.19.71-.4,1.07-.6A8.65,8.65,0,0,1,290.54,414.33ZM446.22,304.68a4,4,0,0,0-5.18-2.16,8.52,8.52,0,0,0-2.35,1.34,15.18,15.18,0,0,0-1.59,1.64c-1,1.19-2,2.44-2.93,3.73l-.26.36a9.88,9.88,0,0,1-.84,1.05c-.18.19-.38.37-.57.56a14.8,14.8,0,0,0-1.83,2c-2.13,2.93-4.64,6.42-7,10.17l-.22.34a54,54,0,0,0-5.08,9.24c-.27.67-.52,1.35-.77,2a29.81,29.81,0,0,1-2,4.63,6.77,6.77,0,0,1-1.61,2,2.84,2.84,0,0,1-.8.46l-.47.16-.33-.15-.34-.11-.12,0a2.1,2.1,0,0,1-.46-.36,11.64,11.64,0,0,1-1.45-1.68l-.37-.5a17,17,0,0,0-1.37-1.7c-.41-.44-.85-.86-1.3-1.27l-.58-.56c1.35,2.55,2.41,5.29,4.48,7.32.64.63,1.33,1.22,1.94,1.88a10.66,10.66,0,0,1,.86,1c.32-.08.63-.18.91-.28a6.83,6.83,0,0,0,1.88-1.07,10.62,10.62,0,0,0,2.62-3.22,33.16,33.16,0,0,0,2.23-5.22c.24-.65.48-1.3.73-1.94a51.93,51.93,0,0,1,4.73-8.54l.23-.35c2.33-3.65,4.79-7.09,6.88-10a12.07,12.07,0,0,1,1.37-1.45l.64-.63a12.38,12.38,0,0,0,1.24-1.52l.24-.33c.94-1.27,1.79-2.4,2.73-3.49a14.17,14.17,0,0,1,1.2-1.25,4.93,4.93,0,0,1,1.18-.62.73.73,0,0,1,.1.13c.61,1.32.55,3.29.5,5l0,.76c0,.72-.05,1.44-.08,2.16,0,.16,0,.33,0,.5.53-.69,1.06-1.36,1.63-2a14.63,14.63,0,0,1,1.4-1.44,5,5,0,0,1,1.11-.7A13.59,13.59,0,0,0,446.22,304.68Zm43-10.39a33.18,33.18,0,0,0-1.78-4.48l-.39-.85a13,13,0,0,1-1.35-4.53c0-.62,0-1.25,0-1.88a21.74,21.74,0,0,0-.32-4.33,37.58,37.58,0,0,1-.74-9.26,20.91,20.91,0,0,1,.28-2.39c.11-.74.23-1.51.29-2.32a27.08,27.08,0,0,0-.06-3.94c0-.61-.07-1.22-.09-1.83a12.8,12.8,0,0,1,.12-2.14,16,16,0,0,0,.08-2.57c0-.27,0-.55,0-.82v-.58a8.81,8.81,0,0,1,0-.89,3.83,3.83,0,0,1,.1-.59c0-.2.08-.41.11-.6a31.7,31.7,0,0,0,.3-3.19,51.56,51.56,0,0,0-1.22-11.88l0-.16a10,10,0,0,1-.29-2.07c0-.35,0-.7,0-1.05,0-.75,0-1.5,0-2.24a10.33,10.33,0,0,0-.28-1.91,14.24,14.24,0,0,0-4.17-.4l0,.15c0,.25.1.51.16.77a8.2,8.2,0,0,1,.26,1.52c0,.68,0,1.37,0,2.06,0,.37,0,.73,0,1.1a14.7,14.7,0,0,0,.36,2.87l0,.15A47.32,47.32,0,0,1,481.75,247a23.2,23.2,0,0,1-.26,2.73c0,.14-.05.28-.07.42a8,8,0,0,0-.17,1.1c0,.42,0,.84,0,1.26V253c0,.3,0,.61,0,.92a12,12,0,0,1-.05,1.93,18.58,18.58,0,0,0-.15,2.78c0,.66.06,1.32.1,2a24.15,24.15,0,0,1,.07,3.38c-.05.65-.16,1.31-.26,2a24.49,24.49,0,0,0-.33,2.82,42.17,42.17,0,0,0,.82,10.25,18.36,18.36,0,0,1,.24,3.54c0,.69,0,1.38,0,2.08a16.67,16.67,0,0,0,1.69,5.94l.4.88a31.14,31.14,0,0,1,1.58,3.94,7.78,7.78,0,0,1,.24,3.26,35.93,35.93,0,0,1-2.19,7.47l-.29.77c-.09.26-.2.53-.3.8a17,17,0,0,0-.95,3,17.78,17.78,0,0,0-.27,2.36c0,.31,0,.62-.07.93l-.95,9.84c-.06.59-.13,1.19-.2,1.78a34.34,34.34,0,0,0-.35,4.35c0,.25,0,.49,0,.74a8.88,8.88,0,0,1,0,1.38l-.07.5a20.56,20.56,0,0,0-.24,2.59c0,.46,0,.93,0,1.4s0,1,0,1.53-.05.78-.09,1.17-.11,1.08-.11,1.68v6.55c0,.37,0,.73-.07,1.1a13.88,13.88,0,0,0-.08,1.76c0,.47,0,.94.07,1.41s.07,1.14.08,1.71c0,1.43,0,2.87,0,4.31v2.09c0,.52,0,1,0,1.56a27.48,27.48,0,0,0,.22,5.18,16.94,16.94,0,0,1-.84,9.17,8.44,8.44,0,0,1-1.86,2.85,6.37,6.37,0,0,1-2.55,1.35,38,38,0,0,1-8.81,1.3c-1.55.08-3.11.23-4.62.37s-3,.29-4.44.36a17.34,17.34,0,0,1-4.95-.26c0,.13,0,.26,0,.39a13.67,13.67,0,0,0,.85,3.82,28.06,28.06,0,0,0,4.29.05c1.56-.08,3.11-.23,4.62-.38s3-.28,4.45-.36a41.36,41.36,0,0,0,9.76-1.47,10,10,0,0,0,4.13-2.27,12.31,12.31,0,0,0,2.8-4.21,21,21,0,0,0,1.1-11.36,24.82,24.82,0,0,1-.17-4.45c0-.55,0-1.1,0-1.64v-2.08c0-1.46,0-2.91,0-4.37,0-.63,0-1.27-.09-1.9,0-.43-.05-.87-.06-1.3a9.43,9.43,0,0,1,.06-1.27,14.3,14.3,0,0,0,.09-1.46v-6.55a11.83,11.83,0,0,1,.09-1.28c.05-.49.1-1,.11-1.48s0-1.13,0-1.7,0-.86,0-1.29a17.36,17.36,0,0,1,.2-2.08l.07-.52a11.53,11.53,0,0,0,.06-2c0-.21,0-.42,0-.63a31.36,31.36,0,0,1,.32-3.87c.07-.62.15-1.25.21-1.87l.95-9.85c0-.34.06-.69.08-1a16.32,16.32,0,0,1,.2-1.86,15,15,0,0,1,.75-2.27c.12-.29.23-.58.33-.86l.29-.76a38.34,38.34,0,0,0,2.4-8.34A11.62,11.62,0,0,0,489.25,294.29ZM207.17,454.6c.15-.91.3-1.82.47-2.73.05-.26.11-.51.16-.77a12.81,12.81,0,0,0,.34-2c.09-1.27.1-2.54.11-3.77,0-.6,0-1.2,0-1.79,0-.3,0-.6,0-.9,0-.55,0-1.1.05-1.64a5.63,5.63,0,0,1,.11-.81c.05-.3.1-.6.13-.9a24,24,0,0,0,.06-4.35,27.52,27.52,0,0,0-.51-4,6.14,6.14,0,0,0-3.72-1.41l-.9,0a16.76,16.76,0,0,1,1.14,5.61,21.13,21.13,0,0,1-.05,3.67c0,.22-.06.43-.1.65-.06.41-.13.82-.15,1.23,0,.61,0,1.23-.06,1.84,0,.29,0,.57,0,.85,0,.62,0,1.24,0,1.86,0,1.21,0,2.37-.1,3.51a11.38,11.38,0,0,1-.25,1.43c-.07.3-.14.6-.19.9-.17.93-.33,1.87-.49,2.8-.24,1.46-.54,2.94-.82,4.38-.36,1.8-.74,3.66-1,5.53a23,23,0,0,1-2.87,7.28,52.65,52.65,0,0,1-4.38,6.79c-5.62,7.43-13.68,14.05-24.64,20.26a62.41,62.41,0,0,1-8.22,3.95,28.29,28.29,0,0,1-7.59,1.94,76,76,0,0,1-9.18,0c-1.76-.06-3.56-.13-5.36-.13-.77,0-1.55,0-2.32,0-2.89.11-5.63.22-8.23-.62a23.81,23.81,0,0,1-6.66-3.58,65.93,65.93,0,0,1-6.27-5,38.77,38.77,0,0,1-4.81-5.51,58.08,58.08,0,0,0,4.2,6.93,40.78,40.78,0,0,0,5.24,6,57.15,57.15,0,0,0,5.21,4.22c.62.26,1.24.5,1.86.7,3.28,1.06,6.5.93,9.61.81,2.43-.1,4.95,0,7.38.09,1.75.07,3.54.13,5.35.13,1.43,0,2.87,0,4.31-.16a31.47,31.47,0,0,0,8.69-2.19,65.5,65.5,0,0,0,8.76-4.2c11.45-6.48,19.91-13.46,25.86-21.32A57.16,57.16,0,0,0,202,473a26.52,26.52,0,0,0,3.31-8.59c.26-1.77.63-3.58,1-5.33C206.61,457.64,206.92,456.12,207.17,454.6ZM609.85,281.05c-1.2,4.07-4.25,7.17-6.47,9.45l-.5.5c-1.07,1.09-2.07,2.11-3,3.22a30.24,30.24,0,0,0-2.82,4.35c-2,3.51-3.63,7.32-5.23,11a121,121,0,0,1-5.68,11.85,32.88,32.88,0,0,1-3.59,5.35,21.13,21.13,0,0,1-2.67,2.49,30.54,30.54,0,0,0-2.37,2.07l-2.73,2.75-.32.33a9.33,9.33,0,0,1-1.32,1.23c-.42.29-.84.58-1.27.86a46.71,46.71,0,0,1-6.07,3.34,69.32,69.32,0,0,1-6.45,2.57l-.64.22a36.89,36.89,0,0,1-6.4,1.77,25,25,0,0,1-7-.21,22.17,22.17,0,0,0-5.82-.24,9.49,9.49,0,0,0-4.78,2.2,4.57,4.57,0,0,0-1.25,3.3,33.66,33.66,0,0,0,0,3.63c0,.88.05,1.76,0,2.63l-.13,7.6c0,.42,0,.85-.05,1.28a15.69,15.69,0,0,0,0,2.27c0,.36.1.72.16,1.08s.16.95.21,1.44a31.81,31.81,0,0,1,0,5.93,14.36,14.36,0,0,1-1.35,5.37,9.61,9.61,0,0,1-3.86,3.88c-3.4,1.88-7.37,1.93-10.88,2h-.22l-5.53,0h-.78a27.3,27.3,0,0,1-6-.47,13,13,0,0,1-1-1.51,18,18,0,0,1-1.61-4,8.85,8.85,0,0,0,2.93,1.46,21.66,21.66,0,0,0,5.72.52c2.07,0,4.17,0,6.25,0h.23c3.18,0,6.46-.06,9-1.46a5.67,5.67,0,0,0,2.27-2.26,10.49,10.49,0,0,0,.89-3.85,28.06,28.06,0,0,0,0-5.18c0-.39-.11-.78-.17-1.17s-.15-.87-.2-1.3a17.79,17.79,0,0,1,0-2.92c0-.39,0-.77,0-1.14l.13-7.6c0-.81,0-1.63,0-2.45a36.6,36.6,0,0,1,0-4.05,8.35,8.35,0,0,1,2.64-6,13.49,13.49,0,0,1,6.83-3.12,25.37,25.37,0,0,1,6.88.23,21.71,21.71,0,0,0,5.93.23,33.67,33.67,0,0,0,5.7-1.61l.64-.22a64,64,0,0,0,6.07-2.41,43.76,43.76,0,0,0,5.56-3.05c.38-.25.76-.51,1.13-.78a6.64,6.64,0,0,0,.75-.71c.12-.14.25-.27.38-.4l2.73-2.76a31.89,31.89,0,0,1,2.7-2.36,17.35,17.35,0,0,0,2.16-2,28.12,28.12,0,0,0,3.13-4.71,120.27,120.27,0,0,0,5.5-11.45,123.41,123.41,0,0,1,5.4-11.35,33.54,33.54,0,0,1,3.22-4.93c1-1.25,2.14-2.39,3.22-3.49l.49-.5c2.5-2.56,4.64-4.91,5.5-7.79a4.25,4.25,0,0,0-.26-3.48,14.62,14.62,0,0,0-1.49-2.07c-.31-.38-.63-.78-.94-1.21h0l-.2-.29,0,0v0h0l0-.05-.1-.13-.8-1.16,0,0a69.46,69.46,0,0,1-5-10.41l-.25-.61a51.93,51.93,0,0,1-1.84-5.67c-.17-.61-.34-1.22-.52-1.82-.12-.42-.24-.83-.35-1.25-.23-.81-.44-1.57-.69-2.3s-.47-1.17-.72-1.75l-.34-.81a129.11,129.11,0,0,0-10.63-21,54.12,54.12,0,0,0-6.94-8.72c-.54-.54-1.09-1-1.64-1.54l.13,0a13.86,13.86,0,0,1,4.91,2.61,36.13,36.13,0,0,1,4,3.5,54.47,54.47,0,0,1,6.52,8.06,156.9,156.9,0,0,1,7.32,15.51l.33.76c.27.65.56,1.31.81,2,.3.86.54,1.73.77,2.57.11.4.22.79.34,1.18.18.62.36,1.25.53,1.87a47.13,47.13,0,0,0,1.69,5.23l.25.62a58.16,58.16,0,0,0,5.46,11l0,0c.32.45.67.89,1,1.32a1.15,1.15,0,0,1,.14.17,42.19,42.19,0,0,0,2.56,4.67A8.6,8.6,0,0,1,609.85,281.05Zm0-4.69ZM397.87,325.72a79.7,79.7,0,0,1,5.72,6l-.53-1.05a30.48,30.48,0,0,0-2.49-4.38,63.3,63.3,0,0,0-7.3-8,19.43,19.43,0,0,0-4.13-3.22,9.77,9.77,0,0,0-2.74-1l-.13,0a3.79,3.79,0,0,0-1.84-.06,4.83,4.83,0,0,0-1.85,1.15l-.17.15c-1.62,1.32-1.74,3.73-1.81,5.17v.17c-.07,1.38,0,2.74,0,4l0,1c.09,2.86,0,5.8,0,8.64l-.06,3.82-.08,9.83c0,.2,0,.39,0,.59a4.93,4.93,0,0,1,0,.77c0,.16-.05.32-.08.47s-.08.47-.11.7a47.87,47.87,0,0,0-.12,8c0,1,.09,2.06.1,3.08,0,1.38.07,2.76.13,4.13.08,2.12.17,4.3.11,6.42a33.52,33.52,0,0,1-.48,4.45,14.6,14.6,0,0,0-.08,3,12.2,12.2,0,0,1,0,2.11l-.08.53c-.12.86-.25,1.74-.29,2.69,0,.45,0,.9,0,1.35s0,1.15-.05,1.72c0,.41-.07.81-.12,1.21-.07.57-.13,1.16-.15,1.8l-.09,3.3c0,.32,0,.66,0,1a11.74,11.74,0,0,1-.09,1.85c-.13.72-.28,1.44-.44,2.16l-.13.63a16.45,16.45,0,0,1-1.43,4.56c-1.41,2.58-4.12,4.31-6.32,5.54-.88.49-1.77.95-2.66,1.42-1.76.91-3.58,1.86-5.32,3a50.06,50.06,0,0,1-6.87,4c-2.58,1.14-4.56,1.44-6.38,1v0a28.19,28.19,0,0,0,.73,3.52c.07.22.15.43.23.64l.75,0a15.64,15.64,0,0,0,6.3-1.53,54.13,54.13,0,0,0,7.42-4.27c1.58-1,3.24-1.89,5-2.81.92-.48,1.84-1,2.75-1.47,2.68-1.48,6-3.64,7.89-7.12a20.08,20.08,0,0,0,1.84-5.65l.13-.62c.16-.76.32-1.52.46-2.29a14.32,14.32,0,0,0,.15-2.57v-.87l.1-3.3c0-.46.07-.95.12-1.46s.11-1,.14-1.42c0-.63.05-1.26.06-1.89,0-.42,0-.85,0-1.27a18.21,18.21,0,0,1,.25-2.25l.08-.56a14.34,14.34,0,0,0,.06-2.84,12.2,12.2,0,0,1,0-2.2,37.72,37.72,0,0,0,.53-5c.06-2.25,0-4.51-.12-6.68-.05-1.35-.1-2.69-.12-4,0-1.06-.06-2.12-.1-3.19a44,44,0,0,1,.09-7.37,3.35,3.35,0,0,1,.07-.44c.05-.27.1-.54.13-.8a9.25,9.25,0,0,0,0-1.27c0-.16,0-.31,0-.47l.08-9.84.06-3.78c.05-2.89.11-5.87,0-8.83l0-1c0-1.29-.08-2.51,0-3.72v-.17a6.88,6.88,0,0,1,.34-2.28l.25-.21.25-.21.18,0a6.1,6.1,0,0,1,1.61.61,15.18,15.18,0,0,1,3.29,2.62l.68.67a4.7,4.7,0,0,1,.81.14,7.71,7.71,0,0,1,2.17.82A17,17,0,0,1,397.87,325.72ZM244.47,129.78h-.25a6.5,6.5,0,0,1-2,.94,24.82,24.82,0,0,1-.5,3.33l-.08.36a8.28,8.28,0,0,0-.22,1.35c0,.55-.06,1.1-.07,1.66l-.12,3.13a7.83,7.83,0,0,1-.22,1.38c0,.23-.1.47-.14.7l-.2,1.07a33.61,33.61,0,0,1-1.46,5.91c-.26.68-.46,1.35-.65,2a19.52,19.52,0,0,1-.67,2,12.11,12.11,0,0,1-1.77,2.71,23.87,23.87,0,0,1-5.16,4.67,80.7,80.7,0,0,1-9.22,5.18c-1.44.72-2.93,1.48-4.38,2.26l-.94.5a126.83,126.83,0,0,1-15.55,7.53l-3.23,1.19c-1.85.67-3.77,1.36-5.64,2.12a18,18,0,0,0-7.51,4.91,9.72,9.72,0,0,0-2.19,4.26,13.39,13.39,0,0,0-.14,2.92,13.69,13.69,0,0,1,0,1.57c0,.4-.1.79-.16,1.18s-.14,1-.19,1.43c-.08.95-.13,1.93-.16,3,0,1.28,0,2.27.07,3.21a7,7,0,0,0,.76,3,6,6,0,0,0,1.53,1.69l.23.2a4.31,4.31,0,0,0,2.24,1.23,10.11,10.11,0,0,0,3.24-.22v-.07c-.08-1-.09-2-.07-3,0-.33,0-.66.06-1a9.91,9.91,0,0,1-2.5.35l-.33-.28-.39-.34a2.57,2.57,0,0,1-.55-.54,4.05,4.05,0,0,1-.23-1.34c-.06-.8-.08-1.67-.06-2.82,0-1,.07-1.85.15-2.72,0-.39.09-.77.15-1.16s.16-1,.2-1.46a17.58,17.58,0,0,0,0-2,9.51,9.51,0,0,1,.07-2,5.74,5.74,0,0,1,1.34-2.45c1.42-1.71,3.32-2.7,5.93-3.76,1.81-.73,3.68-1.41,5.5-2.07l3.28-1.21a131.2,131.2,0,0,0,16-7.75l.94-.5c1.41-.76,2.84-1.49,4.28-2.21a82.35,82.35,0,0,0,9.68-5.46,27.4,27.4,0,0,0,6-5.46,15.54,15.54,0,0,0,2.34-3.67,22.46,22.46,0,0,0,.81-2.39c.18-.61.35-1.18.56-1.72a36.62,36.62,0,0,0,1.65-6.62l.2-1c0-.2.08-.4.12-.6a12.36,12.36,0,0,0,.31-2.07l.12-3.17c0-.5,0-1,.06-1.48a4.54,4.54,0,0,1,.14-.77l.09-.45a23.86,23.86,0,0,0,.61-4.91l-.1,0A11.43,11.43,0,0,0,244.47,129.78ZM329.55,306.7v-.22a40.93,40.93,0,0,0-.47-4.61h0l-.11-.5,0-.08v0a15.76,15.76,0,0,1-.21-2.55c0-.56,0-1.11-.07-1.67a16.17,16.17,0,0,0-.94-4c-.4-1.22-.82-2.34-1.27-3.39a16.44,16.44,0,0,0-5.21-4,17.17,17.17,0,0,0-2.51-.93,19.35,19.35,0,0,1,2.91,4.09,34.67,34.67,0,0,1,2.29,5.47,13.86,13.86,0,0,1,.75,3c0,.49,0,1,.05,1.46a23.7,23.7,0,0,0,.18,2.61h0l.11.5s0,0,0,.06l0,.14a31.14,31.14,0,0,1,.5,4.59l0,.22a35.18,35.18,0,0,1,0,5.52c0,.47-.14,1-.24,1.5s-.16.85-.22,1.28c-.19,1.29-.31,2.68-.39,4.26-.14,3-.09,5.91,0,8.91.14,5.8.14,11.72.14,17.44v22c0,1.41,0,2.84.05,4.26a72.6,72.6,0,0,1-.59,13.45l0,.27a29.14,29.14,0,0,0-.54,4.51c0,.6,0,1.21,0,1.81,0,1,0,1.89-.06,2.81a12.11,12.11,0,0,1-.29,2l-.06.25a5,5,0,0,0-.22,1.13,7.81,7.81,0,0,0,0,1v5.39a79.42,79.42,0,0,0,.47,9.61c.07.63.19,1.25.31,1.88s.24,1.31.3,1.93a18,18,0,0,1,0,3c-.07,1.12-.19,2.24-.36,3.34-.06.42-.14.83-.22,1.25-.14.73-.28,1.48-.36,2.27-.06.6-.1,1.19-.14,1.79a23.85,23.85,0,0,1-.26,2.64,16.14,16.14,0,0,1-1.09,3.49,15.23,15.23,0,0,1-3.06,4.75,24.3,24.3,0,0,1-4.36,3.41c-4.89,3.18-9.87,6.07-14.78,8.61l-.88.47c-1.68.9-3.41,1.83-4.84,1.54l-.3-.07a18.57,18.57,0,0,0,.87,4.11c2.31,0,4.41-1.12,6.16-2.06l.82-.43c5-2.6,10.12-5.57,15.13-8.81a27.81,27.81,0,0,0,5.06-4,19.4,19.4,0,0,0,3.87-6,20.51,20.51,0,0,0,1.35-4.37,27.52,27.52,0,0,0,.3-3.06c0-.54.07-1.09.13-1.63s.18-1.26.31-1.94c.08-.46.17-.92.24-1.38.19-1.21.33-2.46.4-3.7a20,20,0,0,0-.36-5.95c-.1-.54-.21-1.09-.28-1.64a78.53,78.53,0,0,1-.43-9.13v-5c0-.15,0-.29,0-.43a5.42,5.42,0,0,1,0-.57,2.16,2.16,0,0,1,.08-.38c0-.12.07-.24.1-.37a16.59,16.59,0,0,0,.39-2.67c.07-1.05.07-2.09.07-3.09,0-.57,0-1.14,0-1.71a24.66,24.66,0,0,1,.48-3.92l0-.27a75.35,75.35,0,0,0,.65-14.2c0-1.4-.05-2.8-.05-4.19v-22c0-5.75,0-11.69-.14-17.54-.08-2.92-.13-5.78,0-8.61.07-1.46.18-2.73.35-3.9,0-.36.12-.73.19-1.09.11-.6.23-1.21.29-1.88A38,38,0,0,0,329.55,306.7Zm206.79-4.25a19.75,19.75,0,0,0,2.13.11,14.33,14.33,0,0,1-.22-3.64c0-.12,0-.24,0-.36a13.16,13.16,0,0,1-1.44-.08,2.77,2.77,0,0,1-2.39-2.27,12.35,12.35,0,0,1-.18-3.23l.12-4.29c0-1.49.07-3,.09-4.49,0-1.73.06-3.46.12-5.19,0-1.27.12-2.52.19-3.78.11-1.87.23-3.8.23-5.73V258.35c0-1.07,0-2.14,0-3.21,0-.87-.12-1.71-.21-2.51-.08-.64-.15-1.24-.18-1.82a4.17,4.17,0,0,1,.49-2.56,2.9,2.9,0,0,1,1.34-.76,12.7,12.7,0,0,0,1.51-.68l.15-.08h.69c1.25,0,2.52,0,3.77,0a17.71,17.71,0,0,1,6.36.91,12.12,12.12,0,0,1,4.56,3.51,11.92,11.92,0,0,1,2.21.64,14,14,0,0,1,5,3.68c-.18-.41-.36-.82-.54-1.21-2.48-5.2-5.74-8.67-9.7-10.31a21.61,21.61,0,0,0-7.8-1.22c-1.28,0-2.53,0-3.91,0h-.28a6,6,0,0,0-1.09,0,3.54,3.54,0,0,0-1.24.46l-.09.06a9.28,9.28,0,0,1-1.06.46,6.45,6.45,0,0,0-3.15,2.19,7.78,7.78,0,0,0-1.21,5.05c0,.73.11,1.42.19,2.1a20.27,20.27,0,0,1,.19,2.13c0,1,0,2.06,0,3.09,0,.52,0,1,0,1.54v9.64c0,1.81-.11,3.68-.22,5.49-.08,1.29-.16,2.59-.2,3.89-.06,1.75-.09,3.5-.11,5.26,0,1.48-.05,3-.1,4.44l-.12,4.28a16,16,0,0,0,.3,4.3A6.72,6.72,0,0,0,536.34,302.45ZM376,167a9.35,9.35,0,0,0-.51-1.81,9,9,0,0,0-.58-1.16,6.85,6.85,0,0,0,.69,2.3A7.41,7.41,0,0,0,376,167ZM451.39,51.06a11.68,11.68,0,0,0-6.14-2l-.38,0a6.77,6.77,0,0,0-2.2,0l-.51.15-.44,0-.35,0a9.29,9.29,0,0,0-2.15.22l-.37.06c-.67.12-1.34.2-2,.29l-.24,0a23.46,23.46,0,0,0-4.74,1,22.37,22.37,0,0,0-4,1.89c-5.4,3.16-9.26,8.16-10.31,13.35a43.61,43.61,0,0,0-.62,8.7c0,1.91,0,3.72-.19,5.52l-.12,1.13c-.17,1.75-.36,3.55-.38,5.38s-.06,4.29,1.33,6.27a6.37,6.37,0,0,0,5.39,2.4h.12c.42,0,.84,0,1.26-.08a18.68,18.68,0,0,1-.1-2.56c0-.48,0-1,.05-1.44-.42,0-.84.08-1.26.08a2.72,2.72,0,0,1-2.19-.69c-.64-.92-.62-2.73-.6-3.92,0-1.66.19-3.3.36-5l.12-1.14c.19-2,.2-4,.21-5.9a40.09,40.09,0,0,1,.54-7.91c.83-4.1,4-8.1,8.41-10.7a18.9,18.9,0,0,1,3.32-1.56,20.26,20.26,0,0,1,4-.78l.19,0c.72-.1,1.45-.19,2.16-.32l.42-.07a7.07,7.07,0,0,1,1.17-.15h.37a7,7,0,0,0,1,0,4,4,0,0,0,1-.23,6.58,6.58,0,0,1,.92.06l.48.05a7.93,7.93,0,0,1,4.1,1.25,5.07,5.07,0,0,1,1.73,2.62l0,.1.3,0a11.3,11.3,0,0,1,4,1,16.63,16.63,0,0,0-.51-2.28A9,9,0,0,0,451.39,51.06ZM412.56,156.67a22.06,22.06,0,0,0-.28,2.52c0,.52,0,1.05,0,1.57a23.23,23.23,0,0,1-.15,2.94c-.09.67-.22,1.34-.34,2s-.31,1.66-.41,2.54c-.28,2.26-.39,4.56-.51,6.78a57.53,57.53,0,0,1-1.14,10.34,14.54,14.54,0,0,1-2.67,5.84,18.62,18.62,0,0,1-4.7,4,58.32,58.32,0,0,1-9.34,4.47c-1.13.46-2.26.92-3.37,1.41-.78.34-1.57.7-2.36,1.07a27.24,27.24,0,0,1-7.74,2.69,26.55,26.55,0,0,0,.23,4,29,29,0,0,0,9.2-3.06c.75-.35,1.51-.7,2.25-1,1.1-.47,2.2-.92,3.31-1.38a62.33,62.33,0,0,0,10-4.79,22.7,22.7,0,0,0,5.68-4.94,18.28,18.28,0,0,0,3.43-7.41,61.75,61.75,0,0,0,1.25-11.06c.11-2.15.22-4.37.48-6.5.09-.75.23-1.5.38-2.3s.26-1.46.36-2.19a27,27,0,0,0,.19-3.43c0-.48,0-1,0-1.45a17.47,17.47,0,0,1,.24-2.08,23.39,23.39,0,0,0,.28-2.46c.06-1.18,0-2.32-.05-3.43,0-.38,0-.75-.05-1.13-.06-1.8-.05-3.63.91-4.58a9.61,9.61,0,0,1,3.4-1.82,63,63,0,0,1,11.41-2.57l1.81-.3c1.45-.23,2.94-.47,4.42-.76,2-.39,2.76.07,3.29.63a5.89,5.89,0,0,1,1.35,3.58l1-.17a7,7,0,0,1,3,0,9.86,9.86,0,0,0-2.43-6.13c-2.54-2.68-5.88-2-7-1.8-1.4.27-2.86.51-4.27.73l-1.82.3a66.07,66.07,0,0,0-12.14,2.76,12.89,12.89,0,0,0-4.83,2.73c-2.3,2.26-2.18,5.59-2.11,7.58,0,.38,0,.77.05,1.16.05,1.07.1,2.08.06,3.07A19.35,19.35,0,0,1,412.56,156.67ZM207.63,370.1c-.47-5.26-2.27-10.74-5.61-17.17a38.26,38.26,0,0,0-6.66-7.2,26.2,26.2,0,0,0-6.82-4.06,42.23,42.23,0,0,1,9.6,12.47c3.32,6.24,5.07,11.42,5.51,16.32a21,21,0,0,1-1,8.82,19.39,19.39,0,0,1-1.63,3.64,6,6,0,0,1-2.15,2.05c-3.63,2.2-8.14,3.09-12.5,3.95l-2.61.52-1.78.41a16.29,16.29,0,0,1-5.68.69,7.26,7.26,0,0,1-1.44-.33,26.29,26.29,0,0,0,1.43,4.08l.13.27a21,21,0,0,0,6.49-.82l1.68-.38,2.55-.52c4.7-.92,9.56-1.88,13.8-4.45a9.88,9.88,0,0,0,3.5-3.41,23,23,0,0,0,2-4.39A24.76,24.76,0,0,0,207.63,370.1ZM412,274.52a19.77,19.77,0,0,0-2.23-2.16,45.14,45.14,0,0,1-7.57-8.05c-1.15-1.49-2.26-3-3.39-4.53a39.64,39.64,0,0,0-4.32-4.47,30,30,0,0,1-4.07-4.29,12.75,12.75,0,0,0-3.16-3.76,6.67,6.67,0,0,0-4.35-.92,24,24,0,0,0,3.23,3.49l.95.91,1.12,1.07a25.18,25.18,0,0,1,3,3.16l.74,1c.88,1.19,1.76,2.38,2.67,3.55a47,47,0,0,0,7.91,8.4,19.31,19.31,0,0,1,2.19,2.16,20,20,0,0,0,3.24,3A7.24,7.24,0,0,0,412,274.52Zm119.51-170a43.78,43.78,0,0,1-7.61-.89,17.79,17.79,0,0,1-5.83-2.27,16,16,0,0,1-4.49-4.74l-.13-.18a72.23,72.23,0,0,0,4.49,7.33,26.94,26.94,0,0,0,2.35,3,28,28,0,0,0,2.75.78,48.51,48.51,0,0,0,8.28,1,75.85,75.85,0,0,0,9.86-.05c2.84-.23,5.52-.45,7.9.62a10.22,10.22,0,0,1,4.09,3.38,10.88,10.88,0,0,1,2.73.79,12.12,12.12,0,0,1,3.1,2,19.13,19.13,0,0,0-1.88-4.1,14.47,14.47,0,0,0-6.4-5.75c-3.32-1.49-6.64-1.22-10-.95A73.38,73.38,0,0,1,531.54,104.54ZM212.2,437.5a12.19,12.19,0,0,0-1.13-3.29c-.12-.22-.26-.43-.4-.64.08.27.14.54.24.82C211.29,435.47,211.74,436.5,212.2,437.5ZM591.8,82.18c-.49-.7-1-1.41-1.42-2.16l-.25-.42a25.17,25.17,0,0,0-3.85-4.52A22.85,22.85,0,0,0,579.65,71c-.13-.06-.26-.1-.4-.15,2.55,2.41,4.36,5.5,6.26,8.76.48.83,1,1.65,1.45,2.46a44.19,44.19,0,0,0,2.71,4l.47.6a15.83,15.83,0,0,1,3.1,5.29,24.71,24.71,0,0,0,1.13,2.58,26.91,26.91,0,0,0,2.6,3.79l.55.72c1.58,2,3.22,4.14,3.46,6.41s-.41,4.43-2.11,7.11c-.63,1-1.31,2-2,3a41.61,41.61,0,0,0-3.5,5.48,48.14,48.14,0,0,0-2.68,7c-.2.6-.39,1.2-.59,1.8-.58,1.72-1.27,3.47-1.94,5.16-.56,1.43-1.14,2.9-1.66,4.39a57.29,57.29,0,0,1-4.05,9.54c-1.08,1.88-2.35,3.73-3.58,5.51L577.08,157l-.72,1.09c-1.48,2.24-3,4.56-4.64,6.69a32,32,0,0,1-6,6.24,53.65,53.65,0,0,1-8.2,5,77.54,77.54,0,0,1-9.15,4.14,50.06,50.06,0,0,1-5.4,1.56c-1.43.36-2.91.73-4.36,1.18a68.83,68.83,0,0,1-15.94,2.93c-6.61.47-12.09,0-16.75-1.35a34,34,0,0,1-13.36-7.34,25.91,25.91,0,0,1-2.29-2.4,24.44,24.44,0,0,0,1.9,3.75,28.26,28.26,0,0,0,5,6.12c.57.53,1.16,1,1.77,1.5a42.5,42.5,0,0,0,5.81,2.21,46,46,0,0,0,13,1.69c1.64,0,3.35-.06,5.13-.19a72.86,72.86,0,0,0,16.86-3.1c1.34-.42,2.7-.76,4.13-1.12a55.92,55.92,0,0,0,5.81-1.68,84.52,84.52,0,0,0,9.6-4.34,58.13,58.13,0,0,0,8.8-5.39,36.3,36.3,0,0,0,6.78-7c1.72-2.24,3.29-4.62,4.8-6.92l.71-1.08c.57-.86,1.15-1.71,1.73-2.56,1.27-1.85,2.58-3.76,3.75-5.77a61.51,61.51,0,0,0,4.35-10.21c.5-1.42,1.07-2.86,1.62-4.25.68-1.74,1.39-3.54,2-5.36l.6-1.84a45.75,45.75,0,0,1,2.45-6.46,38.51,38.51,0,0,1,3.18-4.94c.72-1,1.47-2.06,2.16-3.15A15,15,0,0,0,605,105a11,11,0,0,0-.42-1.94,24.61,24.61,0,0,1-2.41-3.49A23.21,23.21,0,0,1,601,97l-.35-.45-.55-.71a22.49,22.49,0,0,1-2.23-3.22,20.43,20.43,0,0,1-.93-2.15l-.06-.14a39.36,39.36,0,0,1-2.24-3.32C593.7,85.45,592.77,83.8,591.8,82.18Zm-3.65-73.1a39.09,39.09,0,0,1,.29,13c-.76,4.87-2.35,7.83-4.86,9a8,8,0,0,1-3.08.87,12.4,12.4,0,0,1-2.1-.19,21.16,21.16,0,0,0-2.18-.22,14.23,14.23,0,0,0-3.09.32c-.52.09-1,.18-1.49.23a40.6,40.6,0,0,1-4.4.15c-1.16,0-2.32,0-3.48-.07-2-.06-4.06-.12-6.11,0a29.78,29.78,0,0,0-4.73.48,19.39,19.39,0,0,1-2.83.21c-.72,0-1.47,0-2.24.1a13.38,13.38,0,0,0-4.7,1.64A17.86,17.86,0,0,0,539.5,37a17.09,17.09,0,0,0-4.9,7.22,11.56,11.56,0,0,0-.43,2.12c0,.18,0,.36-.08.54a13.91,13.91,0,0,1-.49,1.95,28.58,28.58,0,0,0-1.15,4.9,15.46,15.46,0,0,0,2.45,10,10.87,10.87,0,0,0,3.31,3.45,9.38,9.38,0,0,0,4.29,1.31A15.21,15.21,0,0,1,540.66,64l-.32-.17a6.65,6.65,0,0,1-2-2.18,11.69,11.69,0,0,1-1.89-7.39,27.22,27.22,0,0,1,1-4.23,18.27,18.27,0,0,0,.62-2.5c0-.21.06-.42.08-.62a8.42,8.42,0,0,1,.27-1.41A13.07,13.07,0,0,1,542.15,40,13.86,13.86,0,0,1,545,38.1a10.08,10.08,0,0,1,3.25-1.21c.63-.06,1.27-.08,2-.1a20.89,20.89,0,0,0,3.46-.27,27.29,27.29,0,0,1,4.13-.41c1.94-.07,3.94,0,5.87,0,1.18,0,2.37.07,3.56.07a45.5,45.5,0,0,0,4.82-.17c.63-.06,1.23-.17,1.81-.28a11,11,0,0,1,2.25-.25,16.51,16.51,0,0,1,1.75.18,15.26,15.26,0,0,0,2.76.23,11.88,11.88,0,0,0,4.71-1.27c3.8-1.82,6.11-5.76,7.08-12a43,43,0,0,0-.3-14.28,39.92,39.92,0,0,0-1.48-5.83A7.76,7.76,0,0,0,588,1.08a17.7,17.7,0,0,0-2.71-.6A26,26,0,0,1,588.15,9.08Zm-113.45,6c.23.2.48.38.7.59a29.84,29.84,0,0,1,6.12,8.42,47.12,47.12,0,0,1,2.28,5.3l.16.42a24.64,24.64,0,0,1,.85,2.61,17,17,0,0,1,.3,2,20.38,20.38,0,0,0,.31,2.24h0s0,.1.05.23l0,.1h0a57.93,57.93,0,0,1,1.23,12.18,61.62,61.62,0,0,1-.19,6.78c0,.49-.12,1-.2,1.46s-.14.9-.19,1.36a14.83,14.83,0,0,0,0,2.09c0,.26,0,.52,0,.78v5.07A111.11,111.11,0,0,1,485.4,83c-.06.46-.14.91-.22,1.35a24.2,24.2,0,0,0-.41,3.18c0,.59,0,1.19-.08,1.78l0,1c0,.24,0,.49,0,.73a11,11,0,0,1-.08,1.35,78.5,78.5,0,0,0-.84,9.41c-.06,1.4-.14,3-.32,4.63-.08.79-.19,1.5-.32,2.18a14.53,14.53,0,0,0-.2,2.39v.27c0,.56,0,1.12,0,1.69a30.47,30.47,0,0,1-.12,3.09l-.12.83c-.08.51-.15,1-.19,1.55s-.06.93-.08,1.39,0,.68-.05,1a39,39,0,0,1-1.08,6.17c-.22,1-.45,2-.64,3-.29,1.51-.57,3-.86,4.54-.32,1.73-.64,3.47-1,5.2-.1.51-.22,1-.35,1.56a22.11,22.11,0,0,0-.66,3.71l-.34,5.16c-.13,1.87-.25,3.31-.4,4.67-.1.86-.12,1.7-.15,2.5s0,1.54-.12,2.26-.25,1.51-.42,2.32-.27,1.35-.38,2c-.2,1.32-.37,2.71-.57,4.52l-.24,2.38c-.22,2.11-.44,4.29-.76,6.4-.71,4.68-2.05,10.3-6.12,12.14a19.28,19.28,0,0,1-6.68,1.15l-.68,0c-1.36.07-2.78.15-4.19.32-.71.08-1.39.21-2,.33s-1.07.19-1.6.27a9.61,9.61,0,0,1-5.41-.52,23.3,23.3,0,0,0,.6,2.53,9.5,9.5,0,0,0,.86,2,16.53,16.53,0,0,0,4.47-.05c.61-.08,1.2-.19,1.8-.3s1.2-.22,1.8-.29c1.29-.15,2.58-.23,3.94-.3l.68,0a22.24,22.24,0,0,0,8.11-1.5c5.82-2.63,7.56-9.49,8.43-15.18.33-2.21.56-4.44.78-6.6.07-.78.15-1.57.24-2.35.19-1.75.35-3.09.55-4.34.09-.62.22-1.23.34-1.84.18-.85.35-1.73.47-2.64s.13-1.78.15-2.63,0-1.47.12-2.16c.16-1.42.29-2.92.42-4.86l.34-5.16a19.62,19.62,0,0,1,.56-3c.14-.57.28-1.15.39-1.71.34-1.75.66-3.49,1-5.24.28-1.5.55-3,.85-4.51.18-.94.39-1.89.61-2.84a42.84,42.84,0,0,0,1.17-6.81c0-.36,0-.71.05-1.07s.05-.87.08-1.31.09-.82.15-1.23.1-.64.14-1a32.67,32.67,0,0,0,.15-3.54c0-.53,0-1.06,0-1.58v-.28a11.74,11.74,0,0,1,.14-1.76c.15-.77.27-1.58.37-2.48.19-1.71.27-3.43.33-4.91a75.6,75.6,0,0,1,.8-8.94,14.16,14.16,0,0,0,.13-1.88c0-.22,0-.43,0-.64l.05-1c0-.6.06-1.2.08-1.8a21.85,21.85,0,0,1,.35-2.66q.13-.73.24-1.47a113.1,113.1,0,0,0,.76-16.8V61.69c0-.3,0-.6,0-.9a10.87,10.87,0,0,1,0-1.52c.05-.4.11-.79.17-1.19.09-.57.18-1.14.23-1.71a62.41,62.41,0,0,0,.21-7.23,69.71,69.71,0,0,0-.86-10.7,2.56,2.56,0,0,0,0-.47h0l-.05-.21v0l-.09-.39-.3-1.23v0a17,17,0,0,1-.3-2,18.52,18.52,0,0,0-.38-2.55,28.08,28.08,0,0,0-1-3.06l-.15-.42c-.61-1.65-1.24-3.17-1.91-4.59a28.32,28.32,0,0,0-2.88-3.21A26.45,26.45,0,0,0,474.7,15.1ZM340,232.09a20.3,20.3,0,0,0,7.13-5.63c.58-.7,1.11-1.42,1.63-2.11q.57-.79,1.17-1.56a25.49,25.49,0,0,1,2.36-2.44c.43-.41.85-.81,1.25-1.22l.79-.78a29.7,29.7,0,0,0,3.05-3.33l.31-.41c.92-1.23,1.85-2.46,2.75-3.71.23-.32.48-.65.74-1,1.51-2,3.39-4.48,3.43-7.4a7.36,7.36,0,0,0-.06-.82c-1-1-2-2-2.93-3.16-2.09-2.64-4.11-5.32-6.24-7.93s-4.4-5.31-6.58-8q-1.63-2-3.23-4.05c-.86-1.11-1.66-2.28-2.58-3.33a44.8,44.8,0,0,1-4.34-5.1,6.69,6.69,0,0,1-1.17-2.9,3.39,3.39,0,0,1,0-.45l-.29-.32a25.36,25.36,0,0,1-2.84-3.42,5,5,0,0,1-.86-2,6.49,6.49,0,0,1,.76-2.7c.37-.82.83-1.62,1.31-2.46.22-.39.44-.78.65-1.17a38.14,38.14,0,0,0,1.94-4.37l.6-1.56a46.91,46.91,0,0,1,3.1-7,37.53,37.53,0,0,1,2.75-3.95c.92-1.21,1.87-2.47,2.71-3.83a21.57,21.57,0,0,0,2.2-5c.47-1.48,1.07-2.9,1.71-4.41l.11-.27c.85-2,1.68-4,2.52-6l1.56-3.77c2.42-5.79,5.2-12,8.76-19.5l.9-1.9c2.68-5.66,5.46-11.5,7.92-17.4,1.42-3.38,2.62-6.85,3.68-9.91.59-1.69,1.17-3.37,1.78-5.05.15-.42.32-.84.48-1.26.34-.88.7-1.8,1-2.76a12.15,12.15,0,0,0,.23-6.37c-.54-.53-1.11-1-1.69-1.51a31,31,0,0,0-6.84-4.08,16.16,16.16,0,0,1,3.86,4.46,8,8,0,0,1,.6,6.36c-.24.81-.55,1.6-.88,2.45l-.51,1.34q-.91,2.55-1.8,5.11c-1,3-2.22,6.41-3.59,9.68-2.43,5.81-5.18,11.61-7.84,17.22l-.91,1.91c-3.58,7.57-6.39,13.82-8.83,19.66-.53,1.26-1.05,2.52-1.57,3.78q-1.25,3-2.5,6l-.12.27c-.64,1.53-1.31,3.1-1.83,4.76a17.43,17.43,0,0,1-1.8,4.11,42.76,42.76,0,0,1-2.49,3.51,42.51,42.51,0,0,0-3,4.36,50.9,50.9,0,0,0-3.38,7.59l-.59,1.53a34.76,34.76,0,0,1-1.72,3.91c-.2.37-.41.74-.62,1.1-.5.89-1,1.81-1.47,2.8a9.22,9.22,0,0,0-1.1,4.74,8.67,8.67,0,0,0,1.48,3.78,28.79,28.79,0,0,0,3.27,4c.42.45.84.9,1.25,1.36.55.62,1.05,1.31,1.59,2,.3.41.6.81.91,1.2q1.61,2.07,3.26,4.09,1.83,2.25,3.68,4.47l2.9,3.52c1.36,1.65,2.69,3.37,4,5l2.24,2.86a33.64,33.64,0,0,0,2.45,2.69c.62.62,1.2,1.21,1.73,1.82.9,1,2.4,2.78,2.38,4.18,0,1.6-1.4,3.43-2.62,5l-.8,1.06c-.88,1.23-1.79,2.44-2.7,3.65l-.31.41a26.23,26.23,0,0,1-2.66,2.88c-.27.27-.55.54-.82.82s-.77.75-1.16,1.13a27.47,27.47,0,0,0-2.74,2.85c-.43.55-.84,1.11-1.26,1.67s-1,1.32-1.49,1.93a16.48,16.48,0,0,1-5.71,4.55,5.49,5.49,0,0,1-5.85-.49,21,21,0,0,1-3.76-4.32c-.37-.52-.75-1-1.13-1.54-.79-1-1.65-2-2.48-2.87l-.81-.88a41.82,41.82,0,0,1-2.85-3.64l-1.07-1.53c-1.54-2.2-3.14-4.47-4.92-6.6-.52-.62-1.05-1.23-1.59-1.82l-.79-.82a2.91,2.91,0,0,0-1.07-.86,3.26,3.26,0,0,0-1.63-.17h-.24a3.08,3.08,0,0,0-2.1.53,5.22,5.22,0,0,0-.91.93l-.13.17a23.14,23.14,0,0,0-1.43,1.85,42.44,42.44,0,0,0-4.19,8c-.66,1.6-1.28,3.23-1.88,4.8-.46,1.19-.91,2.38-1.38,3.55a30,30,0,0,1-1.87,4c-.44.77-.93,1.51-1.44,2.29s-.84,1.29-1.24,1.95c-.62,1-1.15,2.1-1.67,3.13-.22.46-.45.91-.68,1.36-.16.3-.32.59-.49.88s-.44.77-.64,1.16a20.17,20.17,0,0,0-.81,1.91l-.22.58a19.51,19.51,0,0,1-1.45,2.78l-.75,1.31c-.78,1.42-1.52,2.86-2.26,4.3l-.09.18c-1.3,2.5-2.72,5.07-4.34,7.85-.44.75-.87,1.52-1.29,2.29s-.92,1.68-1.41,2.51c-1.75,2.93-3.94,6-7,6.76-1.4.34-2.9.1-5-.79a36.45,36.45,0,0,1-6.6-3.51,20.64,20.64,0,0,1-2.74-2.24,16,16,0,0,0,2.21,4.61,19.25,19.25,0,0,0,3.71,4c.59.28,1.21.56,1.86.83a13.56,13.56,0,0,0,5.31,1.26,9.08,9.08,0,0,0,2.21-.27c4.46-1.08,7.28-4.95,9.45-8.6.52-.86,1-1.74,1.49-2.62s.81-1.48,1.23-2.21c1.66-2.83,3.11-5.46,4.44-8l.09-.18c.73-1.41,1.46-2.82,2.22-4.22.23-.4.46-.81.7-1.21a25.36,25.36,0,0,0,1.71-3.33l.25-.64a14.31,14.31,0,0,1,.63-1.51c.17-.34.35-.66.54-1s.39-.68.57-1l.72-1.43c.49-1,1-1.94,1.5-2.84.38-.62.78-1.22,1.17-1.83.52-.79,1.05-1.61,1.55-2.47a33.67,33.67,0,0,0,2.12-4.56c.48-1.2.94-2.41,1.4-3.61.59-1.55,1.2-3.15,1.84-4.69a38.43,38.43,0,0,1,3.77-7.22c.39-.56.8-1.08,1.2-1.55l.18-.22h.17c.18.19.37.38.55.58.5.54,1,1.09,1.45,1.65.73.87,1.43,1.79,2.12,2.71h0a5.48,5.48,0,0,1,.71-.8c.29-.21.69-.12,1.06-.12a2.9,2.9,0,0,1,.93,0c.15.06.34.33.45.44s.49.51.73.77c.53.56,1,1.14,1.53,1.73,2.12,2.55,4,5.3,5.89,8a41,41,0,0,0,3,3.83c1.08,1.19,2.21,2.35,3.19,3.63s1.81,2.51,2.78,3.72A10.14,10.14,0,0,0,340,232.09Z"/></g></svg>
