<?xml version="1.0" standalone="no"?>
<!DOCTYPE svg PUBLIC "-//W3C//DTD SVG 20010904//EN"
 "http://www.w3.org/TR/2001/REC-SVG-20010904/DTD/svg10.dtd">
<svg version="1.0" xmlns="http://www.w3.org/2000/svg"
 width="256.000000pt" height="256.000000pt" viewBox="0 0 256.000000 256.000000"
 preserveAspectRatio="xMidYMid meet">
<metadata>
Created by potrace 1.11, written by Peter Selinger 2001-2013
</metadata>
<g transform="translate(0.000000,256.000000) scale(0.100000,-0.100000)"
fill="#ef5a47" stroke="none">
<path d="M983 2525 c-18 -19 -29 -35 -26 -35 4 0 -2 -7 -13 -15 -10 -8 -15
-15 -11 -15 5 0 -9 -17 -30 -37 -21 -21 -54 -58 -73 -83 -19 -25 -45 -55 -57
-66 -13 -12 -23 -26 -23 -33 0 -6 -5 -11 -11 -11 -11 0 -39 -24 -39 -34 0 -3
-8 -14 -17 -24 -10 -10 -37 -40 -60 -66 -24 -26 -43 -44 -43 -40 0 5 -36 -28
-80 -73 -44 -45 -80 -85 -80 -90 0 -4 -9 -14 -21 -21 -12 -7 -18 -16 -15 -19
3 -4 -3 -13 -14 -20 -11 -8 -18 -18 -15 -23 3 -4 2 -10 -3 -12 -12 -5 -93
-138 -85 -138 5 0 0 -5 -9 -11 -10 -5 -18 -19 -18 -29 0 -11 -4 -20 -8 -20 -9
0 -27 -39 -62 -130 -45 -119 -51 -165 -51 -364 0 -200 13 -283 61 -393 10 -23
16 -44 12 -47 -3 -3 -1 -6 5 -6 5 0 19 -22 31 -48 12 -26 31 -58 42 -70 11
-11 20 -24 20 -26 0 -3 27 -32 60 -63 33 -32 60 -61 60 -65 0 -17 162 -164
227 -205 40 -26 73 -50 73 -55 0 -5 4 -7 9 -3 5 3 16 -2 24 -10 9 -8 23 -15
31 -15 9 0 16 -4 16 -10 0 -5 6 -10 14 -10 8 0 31 -9 53 -20 21 -11 79 -31
130 -45 178 -49 478 -28 707 49 101 35 162 63 199 94 9 8 17 12 17 7 0 -4 16
11 36 34 20 22 40 41 44 41 11 0 231 221 266 267 16 21 28 41 26 46 -1 4 2 7
8 7 5 0 10 7 10 15 0 8 5 15 10 15 6 0 9 3 8 8 -3 11 43 82 53 82 5 0 8 3 7 8
-1 4 6 25 16 47 19 45 33 94 48 175 13 75 3 439 -15 510 -33 131 -177 420
-208 420 -7 0 -9 3 -6 7 9 8 -52 63 -70 63 -7 0 -13 7 -13 15 0 8 -9 19 -21
25 -23 13 -46 31 -90 73 -16 15 -34 25 -39 22 -6 -3 -10 -2 -10 2 0 5 -17 15
-37 22 -21 8 -57 27 -80 42 -23 16 -45 29 -48 29 -4 0 -20 9 -36 21 -16 11
-29 17 -29 14 0 -4 -7 1 -16 10 -9 9 -29 19 -45 22 -16 3 -29 9 -29 12 0 7
-68 40 -83 40 -4 1 -17 9 -28 20 -11 10 -59 38 -107 62 -48 24 -127 72 -175
107 -131 94 -147 102 -197 102 -39 0 -50 -5 -77 -35z"/>
</g>
</svg>
